<svg width="181" height="204" viewBox="0 0 181 204" fill="none" xmlns="http://www.w3.org/2000/svg">
<path d="M137.79 51.2929C137.774 51.2906 137.848 51.0863 137.86 50.6739C137.877 50.2644 137.807 49.6408 137.485 48.9024C136.863 47.4088 135.23 45.5925 132.786 43.7631C127.89 40.0772 119.863 36.1334 109.579 32.4093C99.2838 28.7002 86.6916 25.158 72.4473 22.586C65.3256 21.3219 57.7832 20.2901 49.9189 19.9212C45.99 19.7547 41.973 19.7332 37.9354 20.1656C35.9223 20.3932 33.8923 20.7165 31.943 21.3546C30.9728 21.6755 30.0157 22.0743 29.1695 22.6476C28.3304 23.2115 27.5906 23.9998 27.3523 24.9886C27.1148 25.978 27.4185 27.0167 27.9115 27.8993C28.4069 28.7934 29.0818 29.5817 29.803 30.3061C31.255 31.7558 32.9221 32.9597 34.6167 34.0713C38.0264 36.278 41.6232 38.0701 45.2064 39.6929C52.3943 42.909 59.5939 45.3877 66.5221 47.4699C80.3988 51.5943 93.2368 54.1079 104.098 55.4368C114.957 56.7475 123.899 56.8446 129.931 55.761C132.936 55.2288 135.212 54.3439 136.441 53.2912C137.061 52.7772 137.404 52.2519 137.573 51.8783C137.748 51.5028 137.775 51.2878 137.79 51.2929C137.79 51.2929 137.78 51.3447 137.752 51.4455C137.729 51.5485 137.678 51.6964 137.596 51.8867C137.433 52.2664 137.093 52.8019 136.473 53.3266C135.243 54.4009 132.959 55.3044 129.948 55.852C123.904 56.9668 114.95 56.8954 104.078 55.6052C93.2032 54.2968 80.3517 51.799 66.4581 47.6826C59.5212 45.6046 52.3122 43.1278 45.1089 39.9084C41.5178 38.2838 37.9126 36.4893 34.4852 34.2723C32.7812 33.1552 31.1039 31.9452 29.6313 30.4764C28.9004 29.7417 28.2119 28.9408 27.6993 28.0159C27.1904 27.1058 26.8597 26.0041 27.1162 24.9313C27.3751 23.8598 28.1676 23.0277 29.0333 22.446C29.9084 21.8532 30.8837 21.4493 31.8675 21.1232C33.8438 20.4767 35.8859 20.153 37.9098 19.9244C41.9674 19.4911 45.9933 19.5144 49.9301 19.6828C57.8093 20.0555 65.3592 21.0938 72.4874 22.3649C86.7434 24.9518 99.3403 28.514 109.638 32.2475C119.924 35.9958 127.95 39.9676 132.844 43.6871C135.285 45.5333 136.917 47.3692 137.531 48.8828C137.848 49.631 137.91 50.2621 137.885 50.6749C137.872 50.8824 137.851 51.0373 137.825 51.139C137.804 51.2416 137.79 51.2929 137.79 51.2929Z" fill="white"/>
<path d="M131.168 19.0315C131.168 19.0315 131.069 18.8431 130.887 18.4727C130.808 18.2801 130.623 18.0935 130.451 17.8421C130.37 17.7115 130.239 17.6065 130.114 17.482C129.983 17.3635 129.858 17.2185 129.697 17.0977C129.068 16.5939 128.181 16.1177 127.072 15.7216C125.964 15.3177 124.622 15.05 123.105 14.8513C117.008 14.0821 108.058 14.9319 97.3662 17.3234C92.0156 18.5245 86.2149 20.1128 80.0904 22.1325C73.9646 24.1461 67.5057 26.5707 60.8724 29.4995C54.2451 32.4316 47.4196 35.8488 40.7564 40.0715C37.4437 42.2027 34.1469 44.5186 31.1542 47.2748C29.669 48.6569 28.2398 50.143 27.0952 51.8479C26.5322 52.7038 26.0499 53.6194 25.7429 54.5957C25.4355 55.5668 25.3754 56.6369 25.7261 57.5964C26.0718 58.5596 26.8111 59.3367 27.6708 59.8824C28.5346 60.4319 29.4936 60.8218 30.4764 61.1124C32.4514 61.6787 34.5028 61.8914 36.5295 61.9898C40.5955 62.1652 44.6093 61.807 48.5162 61.2976C56.3334 60.2243 63.7541 58.4299 70.7102 56.3934C77.6682 54.3504 84.1681 52.0345 90.1475 49.6201C96.1301 47.2109 101.587 44.6814 106.449 42.1463C116.161 37.0737 123.545 31.9484 127.706 27.4271C128.736 26.2964 129.589 25.2259 130.175 24.2026C130.766 23.1843 131.136 22.2486 131.292 21.458C131.337 21.2621 131.339 21.0713 131.362 20.8959C131.378 20.7196 131.409 20.5559 131.387 20.4034C131.356 20.1006 131.378 19.838 131.313 19.6403C131.214 19.2396 131.168 19.0315 131.168 19.0315C131.168 19.0315 131.23 19.234 131.338 19.6351C131.407 19.8334 131.39 20.0969 131.425 20.4024C131.449 20.5564 131.42 20.7215 131.406 20.8992C131.384 21.076 131.384 21.2691 131.341 21.4669C131.191 22.2659 130.826 23.2114 130.238 24.2389C129.656 25.2721 128.805 26.3515 127.777 27.491C123.623 32.0472 116.242 37.201 106.53 42.2988C101.667 44.8465 96.2094 47.3877 90.2244 49.8072C84.2423 52.2322 77.7391 54.557 70.7746 56.6084C63.8119 58.6533 56.3833 60.4543 48.5493 61.5336C44.6331 62.0458 40.609 62.4068 36.5197 62.2314C34.4804 62.1325 32.4145 61.9203 30.4093 61.3456C29.4106 61.0509 28.4311 60.6534 27.5383 60.0858C26.6506 59.5228 25.867 58.7051 25.499 57.6798C25.1254 56.6583 25.1939 55.5291 25.5111 54.5267C25.8283 53.5173 26.3223 52.5835 26.8941 51.7135C28.057 49.9826 29.4969 48.4871 30.9914 47.0971C34.0018 44.326 37.3085 42.0059 40.6296 39.8709C47.3095 35.6417 54.1458 32.225 60.7833 29.2947C67.4264 26.3683 73.8941 23.9483 80.0288 21.9412C86.1621 19.928 91.9713 18.3473 97.3303 17.156C108.039 14.7836 117.004 13.9571 123.118 14.7575C124.639 14.9641 125.985 15.2403 127.097 15.6535C128.21 16.0593 129.099 16.5459 129.729 17.0599C129.89 17.183 130.015 17.3304 130.145 17.4517C130.27 17.579 130.4 17.6858 130.481 17.8192C130.651 18.0753 130.834 18.2656 130.909 18.4611C131.085 18.8375 131.168 19.0315 131.168 19.0315Z" fill="white"/>
<path d="M138.919 34.2093C138.905 34.2112 138.905 34.0811 138.815 33.8632C138.725 33.6538 138.505 33.3394 138.078 33.2102C137.668 33.0824 137.048 33.2139 136.662 33.7084C136.253 34.1837 136.256 35.0354 136.747 35.6483C136.99 35.951 137.349 36.1861 137.763 36.2719C138.175 36.3601 138.638 36.2836 139.049 36.0886C139.886 35.708 140.467 34.6832 140.251 33.6561C140.082 32.6341 139.245 31.6817 138.132 31.4442C137.034 31.2063 135.768 31.6453 134.973 32.5427C134.576 32.9928 134.296 33.5381 134.171 34.1095C134.045 34.6814 134.08 35.2719 134.208 35.8288C134.457 36.946 135.176 37.891 136.09 38.4059C137.004 38.9307 138.051 39.0529 138.978 38.92C139.916 38.8136 140.736 38.4251 141.356 37.925C141.982 37.4236 142.377 36.7883 142.63 36.2066C142.883 35.6199 142.99 35.0699 143.031 34.6212C143.113 33.7196 143.016 33.2158 143.049 33.2135C143.049 33.2135 143.179 33.7107 143.125 34.6291C143.097 35.0862 143.004 35.6502 142.755 36.2584C142.508 36.8611 142.11 37.5262 141.466 38.0566C140.829 38.5855 139.976 38.9997 139.005 39.1187C138.047 39.2651 136.947 39.1481 135.979 38.5995C135.01 38.0622 134.241 37.0598 133.977 35.8825C133.841 35.2999 133.801 34.6716 133.936 34.0573C134.069 33.4458 134.367 32.8618 134.792 32.3809C135.648 31.4209 136.984 30.9517 138.185 31.2115C139.393 31.4732 140.295 32.5101 140.471 33.6165C140.702 34.7373 140.054 35.8661 139.136 36.2696C138.684 36.4781 138.183 36.5569 137.724 36.4548C137.266 36.354 136.874 36.0896 136.612 35.7542C136.352 35.4151 136.217 35.013 136.21 34.6301C136.199 34.2429 136.34 33.8823 136.555 33.623C136.991 33.0903 137.661 32.9662 138.106 33.1192C138.564 33.2746 138.781 33.6207 138.86 33.8446C138.939 34.0783 138.919 34.2093 138.919 34.2093Z" fill="#939393"/>
<path d="M79.2123 8.93791C79.2258 8.93791 79.209 9.06711 79.2692 9.29474C79.3299 9.51443 79.5062 9.8554 79.912 10.0406C80.3015 10.222 80.934 10.1745 81.3822 9.73599C81.8515 9.31993 81.9629 8.47519 81.5576 7.80211C81.357 7.46953 81.0328 7.18873 80.634 7.04787C80.2376 6.90513 79.7688 6.91913 79.335 7.05766C78.4543 7.3226 77.7416 8.26063 77.8186 9.30733C77.8484 10.3424 78.5509 11.3984 79.6214 11.7823C80.6788 12.1652 81.9919 11.8998 82.8991 11.1162C83.3529 10.7235 83.7032 10.2202 83.9034 9.67116C84.1049 9.12122 84.1492 8.53116 84.0969 7.96257C83.9999 6.82211 83.4141 5.7894 82.5772 5.15689C81.7418 4.5146 80.7203 4.25339 79.7842 4.26132C78.8406 4.24126 77.9753 4.51647 77.2947 4.9288C76.6067 5.34161 76.13 5.9186 75.8021 6.46108C75.4728 7.00869 75.2937 7.5395 75.1929 7.97843C74.9905 8.86094 75.0194 9.37357 74.9863 9.37077C74.9863 9.37077 74.9238 8.86048 75.1006 7.95744C75.1887 7.50825 75.3576 6.96204 75.6846 6.39251C76.0102 5.82858 76.4939 5.2222 77.2033 4.78281C77.9049 4.34388 78.8056 4.04769 79.7837 4.05935C80.753 4.04256 81.8277 4.30516 82.7135 4.97871C83.602 5.6406 84.2294 6.73721 84.3339 7.93924C84.3908 8.53443 84.346 9.16273 84.1305 9.75372C83.9169 10.3419 83.5428 10.8807 83.0572 11.3005C82.0805 12.1373 80.6942 12.4237 79.5384 12.0053C78.376 11.5845 77.6208 10.4361 77.5947 9.31619C77.5163 8.1748 78.3093 7.14256 79.2729 6.86549C79.7487 6.71902 80.2557 6.70783 80.6975 6.87108C81.1378 7.03201 81.4909 7.34686 81.7055 7.71442C81.9172 8.08524 81.9975 8.50178 81.9531 8.8824C81.9121 9.26768 81.7246 9.60586 81.476 9.83395C80.9731 10.3037 80.2921 10.3363 79.8719 10.1259C79.4385 9.91091 79.2697 9.53869 79.2216 9.3064C79.1745 9.06524 79.2123 8.93791 79.2123 8.93791Z" fill="#939393"/>
<path d="M18.2685 40.1328L18.7415 40.9976C18.943 41.3666 19.2467 41.6698 19.6156 41.8713L20.4804 42.3442L19.6156 42.8172C19.2467 43.0192 18.9435 43.3224 18.7415 43.6913L18.2685 44.5561L17.7955 43.6913C17.5936 43.3224 17.2904 43.0192 16.9214 42.8172L16.0566 42.3442L16.9214 41.8713C17.2904 41.6693 17.5936 41.3661 17.7955 40.9976L18.2685 40.1328Z" fill="white"/>
<path d="M133.968 62.0664L134.521 63.0781C134.757 63.5096 135.112 63.8646 135.544 64.1006L136.556 64.6538L135.544 65.207C135.112 65.443 134.757 65.798 134.521 66.2294L133.968 67.2412L133.415 66.2294C133.179 65.798 132.824 65.443 132.393 65.207L131.381 64.6538L132.393 64.1006C132.824 63.8646 133.179 63.5096 133.415 63.0781L133.968 62.0664Z" fill="white"/>
<path d="M35.4594 72.2227L36.0127 73.2344C36.2487 73.6658 36.6036 74.0208 37.0351 74.2568L38.0468 74.81L37.0351 75.3632C36.6036 75.5993 36.2487 75.9542 36.0127 76.3857L35.4594 77.3974L34.9062 76.3857C34.6702 75.9542 34.3153 75.5993 33.8838 75.3632L32.8721 74.81L33.8838 74.2568C34.3153 74.0208 34.6702 73.6658 34.9062 73.2344L35.4594 72.2227Z" fill="white"/>
<path d="M139.092 20.125L139.439 20.7594C139.587 21.0299 139.809 21.2524 140.08 21.4003L140.714 21.7473L140.08 22.0943C139.809 22.2422 139.587 22.4647 139.439 22.7352L139.092 23.3696L138.745 22.7352C138.597 22.4647 138.375 22.2422 138.104 22.0943L137.47 21.7473L138.104 21.4003C138.375 21.2524 138.597 21.0299 138.745 20.7594L139.092 20.125Z" fill="white"/>
<path d="M94.2512 0L94.5982 0.634367C94.7461 0.904905 94.9686 1.1274 95.2391 1.27526L95.8735 1.6223L95.2391 1.96933C94.9686 2.1172 94.7461 2.33969 94.5982 2.61023L94.2512 3.2446L93.9042 2.61023C93.7563 2.33969 93.5338 2.1172 93.2633 1.96933L92.6289 1.6223L93.2633 1.27526C93.5338 1.1274 93.7563 0.904905 93.9042 0.634367L94.2512 0Z" fill="white"/>
<path d="M59.2947 7.82422L59.8759 8.88678C60.1235 9.34017 60.4962 9.71239 60.9496 9.96054L62.0122 10.5417L60.9496 11.1229C60.4962 11.3706 60.124 11.7433 59.8759 12.1967L59.2947 13.2592L58.7135 12.1967C58.4658 11.7433 58.0931 11.3711 57.6397 11.1229L56.5771 10.5417L57.6397 9.96054C58.0926 9.71286 58.4653 9.34017 58.7135 8.88678L59.2947 7.82422Z" fill="white"/>
<path d="M22.1097 71.8065C22.0962 71.8084 22.0957 71.6782 22.0057 71.4604C21.9161 71.251 21.696 70.9366 21.2692 70.8074C20.8587 70.6796 20.2383 70.8111 19.853 71.3056C19.4435 71.7809 19.4463 72.6326 19.9379 73.2455C20.1809 73.5482 20.5401 73.7828 20.9543 73.8691C21.3662 73.9573 21.8289 73.8808 22.2403 73.6858C23.0776 73.3052 23.6583 72.2804 23.4419 71.2533C23.2735 70.2313 22.4362 69.2788 21.3237 69.0414C20.2248 68.8035 18.9589 69.2425 18.1645 70.1399C17.7671 70.59 17.4877 71.1353 17.3627 71.7067C17.2363 72.2786 17.2717 72.8691 17.3995 73.426C17.6481 74.5432 18.3669 75.4882 19.2812 76.0031C20.1949 76.5279 21.2421 76.6501 22.1689 76.5172C23.107 76.4108 23.9274 76.0223 24.5469 75.5222C25.1733 75.0208 25.5684 74.3855 25.8212 73.8038C26.0745 73.2171 26.1808 72.6671 26.2219 72.2184C26.3044 71.3167 26.2074 70.813 26.2401 70.8107C26.2401 70.8107 26.3702 71.3079 26.3161 72.2268C26.2886 72.6839 26.1948 73.2474 25.9467 73.8561C25.6995 74.4587 25.3016 75.1239 24.657 75.6542C24.0203 76.1832 23.1671 76.5974 22.1965 76.7163C21.2384 76.8623 20.138 76.7457 19.1702 76.1972C18.2014 75.6598 17.4326 74.6574 17.1682 73.4801C17.0324 72.8975 16.9923 72.2692 17.1271 71.6549C17.2601 71.0434 17.5586 70.4594 17.9835 69.9785C18.8394 69.0186 20.1749 68.5493 21.3764 68.8091C22.5845 69.0708 23.4866 70.1077 23.6625 71.2141C23.8929 72.335 23.245 73.4638 22.3275 73.8673C21.8755 74.0762 21.3746 74.1551 20.9151 74.0524C20.4571 73.9517 20.0653 73.6872 19.8031 73.3518C19.5433 73.0127 19.4085 72.6107 19.4015 72.2277C19.3908 71.8406 19.5317 71.4805 19.7472 71.2207C20.1828 70.688 20.8531 70.5639 21.2976 70.7169C21.7557 70.8722 21.973 71.2183 22.0519 71.4422C22.1298 71.6759 22.1097 71.8065 22.1097 71.8065Z" fill="#939393"/>
<path d="M113.547 79.2012C114.073 72.9005 114.566 66.5606 114.001 60.2626C113.436 53.9651 111.757 47.656 108.257 42.3898C107.726 41.5917 103.575 36.375 102.668 36.6852C102.02 36.9067 105.014 41.9793 104.814 42.6342C102.904 48.8874 103.588 55.7068 105.59 61.9311C107.593 68.1558 110.254 73.5521 113.547 79.2012Z" fill="#263238"/>
<path d="M78.4001 32.4221L76.991 32.834C62.811 36.9793 54.185 51.3155 57.1777 65.7828C59.9615 79.243 63.2098 94.0797 65.3597 101.109C69.8096 115.661 84.2498 113.729 84.2498 113.729C84.2829 113.721 84.4126 119.156 84.4126 119.156L98.1877 134.762L121.982 118.301L108.633 55.555C105.508 40.0074 93.8548 28.8678 78.4001 32.4221Z" fill="#A36957"/>
<path d="M84.2432 113.709C84.2432 113.709 94.4387 111.491 102.448 102.461C102.448 102.461 101.95 114.953 84.3696 117.673L84.2432 113.709Z" fill="#894536"/>
<path d="M62.1653 71.3306C62.5034 71.527 63.7414 69.8958 65.9878 69.2456C68.222 68.5637 70.2068 69.2372 70.3696 68.8911C70.4535 68.7348 70.0468 68.3202 69.1769 68.0077C68.3191 67.6947 66.9668 67.5403 65.5703 67.9554C64.1742 68.3719 63.149 69.2302 62.627 69.9546C62.092 70.6855 62.002 71.2457 62.1653 71.3306Z" fill="#263238"/>
<path d="M84.3263 65.4046C84.6649 65.601 85.9057 63.9694 88.1502 63.3196C90.384 62.6386 92.3692 63.3112 92.5325 62.9651C92.616 62.8084 92.212 62.3942 91.3393 62.0821C90.4815 61.7682 89.1298 61.6152 87.7332 62.029C86.3371 62.446 85.3119 63.3042 84.7895 64.0282C84.2554 64.7595 84.1644 65.3202 84.3263 65.4046Z" fill="#263238"/>
<path d="M81.3155 85.0163C81.2885 84.8857 79.8229 85.0523 77.4781 85.424C76.8876 85.5327 76.3115 85.5775 76.1011 85.2141C75.8451 84.8396 75.9043 84.1516 75.9869 83.4034C76.1203 81.8585 76.2593 80.2404 76.4057 78.5439C76.9431 71.6424 77.1534 66.0353 76.8754 66.0157C76.597 65.997 75.936 71.5752 75.3987 78.4763C75.2802 80.1746 75.165 81.7932 75.0586 83.3413C75.0325 84.0559 74.8753 84.9039 75.4187 85.6778C75.6981 86.0612 76.2103 86.2487 76.6063 86.2403C77.0065 86.245 77.3307 86.1573 77.6194 86.091C79.9297 85.5486 81.3435 85.1465 81.3155 85.0163Z" fill="#263238"/>
<path d="M93.6813 56.8289C93.4975 56.1782 91.1471 56.3098 88.4352 55.7808C85.712 55.3069 83.5636 54.3456 83.1597 54.8876C82.9782 55.1483 83.3192 55.7729 84.1667 56.4516C85.0063 57.1288 86.3749 57.8136 88.0042 58.1163C89.6334 58.4148 91.1564 58.2637 92.1826 57.9307C93.2167 57.5986 93.7587 57.1372 93.6813 56.8289Z" fill="#263238"/>
<path d="M60.136 64.7467C60.7461 65.1291 62.4346 64.0908 64.6344 63.456C66.8145 62.7568 68.8049 62.6742 69.0871 62.0198C69.2037 61.7082 68.768 61.2763 67.8179 61.0174C66.8803 60.7567 65.425 60.7338 63.9193 61.1914C62.4141 61.6509 61.2284 62.4779 60.6057 63.2139C59.9709 63.956 59.8603 64.5536 60.136 64.7467Z" fill="#263238"/>
<path d="M110.597 66.7131C110.814 66.5326 119.765 60.8116 122.364 70.8892C124.964 80.9672 113.432 82.0862 113.34 81.8022C113.248 81.5172 110.597 66.7131 110.597 66.7131Z" fill="#A36957"/>
<path d="M116.316 76.6131C116.352 76.5693 116.524 76.6905 116.856 76.7502C117.179 76.8081 117.7 76.7712 118.175 76.4387C119.138 75.7735 119.599 73.8518 119.179 72.0224C118.969 71.0988 118.551 70.2746 118.04 69.6355C117.542 68.9779 116.932 68.5856 116.371 68.6285C115.806 68.643 115.509 69.0614 115.46 69.3771C115.398 69.6934 115.513 69.8781 115.464 69.9094C115.442 69.942 115.204 69.796 115.178 69.3589C115.168 69.1476 115.224 68.8794 115.412 68.6252C115.602 68.3663 115.932 68.1742 116.316 68.1182C117.107 67.9713 117.991 68.5058 118.553 69.2074C119.159 69.9014 119.65 70.8222 119.887 71.8591C120.346 73.9068 119.797 76.0753 118.449 76.872C117.787 77.24 117.141 77.1789 116.774 77.0194C116.398 76.8515 116.286 76.6406 116.316 76.6131Z" fill="#894536"/>
<path d="M59.5549 47.3951C57.6961 46.8992 61.2854 40.3858 64.85 37.5642C70.2365 33.3005 79.0864 29.2993 85.0788 29.4952C92.2938 29.7307 98.727 31.6922 103.636 36.9854C108.545 42.2781 111.593 49.1097 113.138 56.1614C113.609 58.3131 113.942 60.5955 113.249 62.6861C112.394 65.2702 110.036 67.3496 110.921 70.4006C111.245 71.5154 111.205 72.7324 110.638 73.745C109.279 76.171 106.559 74.8855 105.059 73.2921C101.855 69.888 100.434 65.2263 99.1118 60.7424C98.1724 57.5552 97.2237 54.297 97.3627 50.9774C97.4382 49.1708 97.8366 47.3829 97.8119 45.575C97.7876 43.767 97.254 41.8411 95.8425 40.7104C95.613 40.5266 95.2567 40.3111 94.8159 40.0844C91.3325 38.2882 87.1414 38.5335 83.8707 40.6932C78.6829 44.1197 69.7164 49.5393 66.6999 48.2403C62.3601 46.3703 61.0368 44.7764 61.0368 44.7764L59.5549 47.3951Z" fill="#263238"/>
<path d="M86.1272 92.5216C86.471 92.6242 87.0261 90.2999 89.4073 89.1203C91.7871 87.9346 94.2042 88.783 94.2994 88.4617C94.3665 88.3236 93.8544 87.8795 92.8142 87.6029C91.7964 87.3245 90.2189 87.2993 88.7617 88.0204C87.3073 88.7457 86.4659 89.9729 86.1604 90.9082C85.8418 91.8602 85.9649 92.4978 86.1272 92.5216Z" fill="#263238"/>
<path d="M70.3483 75.339C70.3156 75.3446 70.3091 75.1753 70.1454 74.95C69.9924 74.7317 69.5838 74.4812 69.1033 74.6897C68.8757 74.784 68.6537 74.9813 68.5525 75.2588C68.4456 75.5279 68.4764 75.8782 68.6471 76.1824C68.8155 76.4818 69.1318 76.7332 69.5133 76.7906C69.8842 76.8522 70.3375 76.7295 70.6669 76.452C70.9994 76.1744 71.2294 75.735 71.2187 75.2649C71.2107 74.7886 71.0111 74.2844 70.6393 73.9243C70.2722 73.5605 69.7414 73.3426 69.1952 73.3706C68.6383 73.4014 68.065 73.6216 67.6368 74.032C67.2049 74.4351 66.9148 75.0088 66.8653 75.6222C66.8191 76.2313 66.9843 76.91 67.3271 77.4511C67.6783 77.9964 68.2306 78.412 68.8738 78.613C69.5166 78.8085 70.2475 78.7893 70.9229 78.5925C71.2606 78.4945 71.5704 78.3355 71.8554 78.1466C72.1348 77.9488 72.3736 77.7039 72.5774 77.4348C72.7747 77.1591 72.9226 76.8531 73.0383 76.5359C73.1344 76.2122 73.2141 75.882 73.2295 75.5433C73.2827 74.8646 73.1787 74.1916 72.9207 73.6146C72.6553 73.0343 72.2318 72.5445 71.7313 72.1868C70.7163 71.4764 69.4312 71.3019 68.3388 71.5156C67.2347 71.6984 66.3578 72.3934 65.7911 73.1528C65.2384 73.9402 64.9888 74.8129 64.9482 75.5806C64.9156 76.3498 65.0317 77.0285 65.2379 77.5407C65.3116 77.8093 65.4403 78.0216 65.5266 78.2184C65.6096 78.418 65.7123 78.5687 65.7888 78.6956C65.9413 78.9493 66.0131 79.0925 65.9935 79.1084C65.9739 79.1242 65.8634 79.0123 65.6679 78.7795C65.5705 78.6634 65.445 78.5211 65.3382 78.3252C65.2281 78.1321 65.0742 77.9208 64.9743 77.6456C64.7169 77.1222 64.5452 76.4058 64.541 75.5676C64.5452 74.7312 64.778 73.7578 65.368 72.8585C65.6847 72.4298 66.0481 71.9853 66.543 71.6578C66.6587 71.5655 66.7828 71.4829 66.919 71.4167C67.0524 71.3462 67.1839 71.2684 67.3229 71.2031C67.6121 71.0995 67.9018 70.9698 68.2194 70.9227C69.4471 70.6578 70.9001 70.8154 72.1152 71.6354C72.7108 72.0478 73.2262 72.6266 73.5523 73.3226C73.8746 74.0264 73.9973 74.8147 73.9418 75.5914C73.925 75.9841 73.8368 76.3773 73.7211 76.764C73.5859 77.146 73.4072 77.5192 73.1651 77.8588C72.9165 78.1923 72.6199 78.4964 72.2738 78.7417C71.923 78.9778 71.54 79.1713 71.1324 79.2898C70.3245 79.5249 69.463 79.5496 68.6593 79.3048C67.8616 79.0552 67.1601 78.5235 66.7254 77.834C66.2977 77.1348 66.1097 76.3498 66.1726 75.5592C66.244 74.77 66.626 74.0409 67.182 73.5371C67.7357 73.0241 68.4634 72.754 69.1719 72.7293C69.9005 72.7045 70.6006 73.011 71.0685 73.498C71.5447 73.984 71.7877 74.6375 71.7807 75.2667C71.7761 75.9128 71.4449 76.4991 70.9887 76.8526C70.5255 77.2081 69.9565 77.3485 69.428 77.2445C68.9014 77.1414 68.4904 76.7803 68.2866 76.3699C68.0804 75.9613 68.0636 75.4902 68.2315 75.1231C68.3934 74.7555 68.704 74.519 69.0054 74.4215C69.3062 74.3194 69.6136 74.3478 69.8328 74.4579C70.0549 74.5647 70.1915 74.7289 70.2685 74.8693C70.4159 75.165 70.3637 75.3423 70.3483 75.339Z" fill="#263238"/>
<path d="M90.7135 70.2301C90.6809 70.2357 90.6743 70.0664 90.5106 69.8411C90.3571 69.6223 89.949 69.3723 89.4686 69.5808C89.2405 69.675 89.0189 69.8724 88.9177 70.1499C88.8109 70.419 88.8417 70.7689 89.0124 71.0734C89.1808 71.3729 89.497 71.6243 89.8786 71.6817C90.2494 71.7433 90.7028 71.6206 91.0321 71.3431C91.3647 71.0655 91.5946 70.6261 91.5839 70.156C91.576 69.6797 91.3763 69.1755 91.0046 68.8154C90.6375 68.4516 90.1067 68.2337 89.5605 68.2617C89.0035 68.2925 88.4303 68.5127 88.0021 68.9231C87.5701 69.3261 87.28 69.8999 87.2306 70.5132C87.1844 71.1224 87.3495 71.8011 87.6923 72.3422C88.0436 72.8875 88.5958 73.3031 89.2391 73.5041C89.8818 73.6995 90.6128 73.6804 91.2882 73.4836C91.6259 73.3856 91.9356 73.2266 92.2206 73.0377C92.5 72.8399 92.7388 72.595 92.9426 72.3254C93.14 72.0497 93.2878 71.7437 93.4035 71.4266C93.4996 71.1028 93.5794 70.7726 93.5947 70.434C93.6479 69.7553 93.5439 69.0822 93.286 68.5052C93.0205 67.9249 92.597 67.4352 92.0965 67.0774C91.0815 66.367 89.7969 66.1926 88.7041 66.4062C87.6 66.589 86.7231 67.284 86.1563 68.0434C85.6036 68.8308 85.354 69.7035 85.3135 70.4713C85.2808 71.2404 85.397 71.9191 85.6031 72.4313C85.6768 72.6999 85.806 72.9122 85.8919 73.109C85.9744 73.3087 86.0775 73.4593 86.154 73.5862C86.3061 73.8399 86.3784 73.9831 86.3588 73.999C86.3392 74.0149 86.2286 73.9024 86.0337 73.6702C85.9362 73.554 85.8107 73.4117 85.7034 73.2158C85.5933 73.0227 85.4394 72.811 85.3396 72.5362C85.0821 72.0129 84.9104 71.2964 84.9062 70.4582C84.9104 69.6219 85.1432 68.6484 85.7333 67.7491C86.05 67.3204 86.4133 66.8759 86.9082 66.5485C87.0244 66.4561 87.148 66.3735 87.2842 66.3073C87.4176 66.2369 87.5491 66.159 87.6881 66.0941C87.9778 65.9906 88.267 65.8605 88.5846 65.8133C89.8123 65.5484 91.2653 65.7061 92.4804 66.5261C93.0761 66.9384 93.5915 67.5173 93.9175 68.2132C94.2398 68.9171 94.3625 69.7054 94.307 70.482C94.2907 70.8747 94.2021 71.268 94.0868 71.6546C93.9516 72.0367 93.7729 72.4098 93.5308 72.7494C93.2822 73.0829 92.9856 73.387 92.6395 73.6324C92.2892 73.8684 91.9057 74.062 91.4981 74.1804C90.6902 74.4155 89.8291 74.4403 89.025 74.1954C88.2273 73.9458 87.5258 73.4141 87.0911 72.7247C86.6634 72.0255 86.4754 71.2404 86.5383 70.4503C86.6097 69.6611 86.9922 68.932 87.5477 68.4282C88.1014 67.9151 88.8291 67.6451 89.5376 67.6204C90.2662 67.5956 90.9663 67.9021 91.4342 68.3891C91.9104 68.8751 92.1534 69.5286 92.1464 70.1578C92.1418 70.8038 91.8106 71.3902 91.3544 71.7437C90.8908 72.0992 90.3222 72.2396 89.7937 72.1355C89.2671 72.0325 88.8561 71.6714 88.6523 71.2614C88.4461 70.8528 88.4289 70.3817 88.5972 70.0146C88.7591 69.6471 89.0697 69.4106 89.3711 69.3126C89.6719 69.2105 89.9793 69.2389 90.1985 69.349C90.4206 69.4563 90.5572 69.62 90.6342 69.7604C90.7811 70.0557 90.7284 70.2334 90.7135 70.2301Z" fill="#263238"/>
<path d="M84.9699 46.9088C84.9746 46.8645 85.3258 46.941 85.8529 46.7997C86.3674 46.67 87.0759 46.2586 87.4118 45.509C87.7374 44.7543 87.5611 43.9543 87.3087 43.4874C87.0564 43.0037 86.763 42.7966 86.7924 42.7635C86.8003 42.7425 87.1445 42.9044 87.458 43.4025C87.7677 43.8802 88 44.7548 87.6343 45.6065C87.2541 46.4512 86.4528 46.872 85.8912 46.9666C85.3119 47.0735 84.9597 46.9289 84.9699 46.9088Z" fill="#263238"/>
<path d="M93.7958 43.9182C93.8154 43.9266 93.6018 44.2965 93.0206 44.6141C92.4553 44.9318 91.4911 45.1305 90.526 44.7937C89.5661 44.4518 88.9261 43.7367 88.5996 43.1877C88.2642 42.6294 88.1859 42.2296 88.2101 42.2231C88.2488 42.2077 88.3846 42.5813 88.7428 43.0935C89.094 43.5996 89.7172 44.2484 90.6063 44.5647C91.4948 44.8749 92.3927 44.7209 92.9441 44.4607C93.509 44.2018 93.7641 43.8855 93.7958 43.9182Z" fill="#263238"/>
<path d="M90.7532 50.5073C90.7149 50.5227 90.5908 50.1846 90.2503 49.7354C89.9168 49.2885 89.3268 48.7409 88.5231 48.4554C87.7185 48.1718 86.9152 48.2269 86.3751 48.3649C85.828 48.5002 85.5187 48.6854 85.4986 48.649C85.4833 48.6289 85.7659 48.3859 86.328 48.1994C86.8807 48.0118 87.739 47.9214 88.6042 48.2259C89.4686 48.5329 90.0791 49.1425 90.3907 49.636C90.7107 50.1351 90.7779 50.5017 90.7532 50.5073Z" fill="#263238"/>
<path d="M91.9296 49.8332C91.9142 49.8514 91.6488 49.6294 91.4548 49.1228C91.2603 48.6317 91.1856 47.8191 91.5868 47.0719C91.9958 46.3283 92.7188 45.9491 93.2366 45.8451C93.7669 45.7322 94.0976 45.8344 94.0907 45.8572C94.0888 45.8997 93.7623 45.8642 93.28 46.0112C92.8061 46.1497 92.1656 46.5219 91.8004 47.1875C91.4408 47.856 91.4767 48.5957 91.618 49.0687C91.7566 49.5538 91.9641 49.8085 91.9296 49.8332Z" fill="#263238"/>
<path d="M36.0655 92.7351C36.0655 92.7351 47.9104 68.7122 48.7211 67.7462C49.5318 66.7802 53.845 56.7353 53.845 56.7353L59.8789 49.5236C59.8789 49.5236 62.7093 49.9481 60.9121 53.611L58.3504 58.4901L67.7581 49.0469C67.7581 49.0469 70.5442 49.3692 69.4597 52.3283C68.6537 54.5271 65.7804 57.9327 65.7804 57.9327L74.224 50.6034C74.224 50.6034 77.7368 51.1449 76.0515 54.8299C74.9559 57.226 65.1138 68.1035 65.1138 68.1035C65.1138 68.1035 70.0232 65.0702 71.5751 64.0636C73.1265 63.057 74.7282 60.8675 75.8738 61.0746C77.0189 61.2817 79.0186 63.0542 76.0357 66.4402C73.0528 69.8266 64.6609 75.2229 63.4384 75.8932C62.2163 76.5639 62.2163 76.5639 62.2163 76.5639C62.2163 76.5639 60.7624 80.3286 58.7133 82.1477C58.7133 82.1477 55.3455 92.82 53.6477 95.7582C51.8164 98.9277 48.7756 100.648 48.7756 100.648L43.5944 114.643L28.7959 104.422L36.0655 92.7351Z" fill="#A36957"/>
<path d="M36.0648 92.7359C36.0648 92.7359 35.9109 93.0027 35.5984 93.5149C35.2816 94.0303 34.8157 94.7892 34.2056 95.7818C32.9741 97.7735 31.1653 100.699 28.8438 104.453L28.8274 104.376C32.8081 107.116 37.8107 110.561 43.6408 114.575L43.5153 114.615C45.0653 110.416 46.8103 105.689 48.6836 100.615C48.6915 100.593 48.706 100.576 48.7237 100.566L48.7269 100.564C50.0992 99.7219 51.3834 98.6122 52.4613 97.2931C52.9954 96.6293 53.4838 95.911 53.8639 95.1264C54.2441 94.3386 54.5944 93.5223 54.9228 92.6869C56.2391 89.3453 57.4262 85.7882 58.6063 82.1145C58.6123 82.0949 58.6245 82.0776 58.6385 82.065C59.3932 81.3793 60.0341 80.5015 60.605 79.5555C61.1703 78.6054 61.6815 77.5815 62.1088 76.5232C62.1191 76.4975 62.1382 76.477 62.1601 76.4644C62.78 76.1178 63.4153 75.7927 64.0194 75.414C64.6281 75.0371 65.2359 74.6485 65.8409 74.2492C67.0527 73.4525 68.2626 72.6237 69.4665 71.7617C70.6695 70.8983 71.8683 70.0032 73.0372 69.0507C74.1977 68.0936 75.361 67.0954 76.3135 65.9101C76.7743 65.3121 77.1876 64.6558 77.3765 63.9287C77.5771 63.2145 77.4735 62.3969 76.96 61.8478C76.7142 61.574 76.3947 61.3571 76.0453 61.2433C75.6969 61.1193 75.3484 61.2191 75.0149 61.408C74.3586 61.7947 73.7919 62.3567 73.2046 62.8847C72.6239 63.4174 72.0105 63.9613 71.3179 64.3671C70.6415 64.7902 69.9633 65.2142 69.2828 65.6401C67.9217 66.4908 66.5531 67.3472 65.1766 68.2078C65.1197 68.2433 65.0451 68.226 65.0096 68.1691C64.9803 68.1225 64.9882 68.0623 65.0232 68.0227C65.741 67.218 66.5163 66.349 67.2943 65.4773C69.4689 63.0074 71.6103 60.5483 73.624 58.0393C74.1249 57.4105 74.6161 56.7771 75.0839 56.132C75.5457 55.4804 75.9856 54.8302 76.2081 54.0778C76.4446 53.3464 76.4697 52.5213 76.0709 51.8813C75.6735 51.2446 74.9291 50.87 74.2042 50.7226L74.3008 50.6947C71.4321 53.1836 68.6139 55.6287 65.8558 58.0221C65.8068 58.0645 65.7331 58.0594 65.6907 58.0104C65.6529 57.9665 65.6543 57.9012 65.6897 57.8583C66.8829 56.3984 68.0187 54.8945 68.8942 53.2816C69.1041 52.8758 69.3098 52.4648 69.4283 52.0329C69.5691 51.608 69.6284 51.1569 69.5589 50.7315C69.4922 50.3061 69.265 49.9185 68.925 49.6549C68.5859 49.3947 68.1614 49.2263 67.7435 49.1605L67.8368 49.1279C64.5796 52.3939 61.4385 55.5438 58.4244 58.5664C58.3828 58.6079 58.3152 58.6084 58.2737 58.5669C58.2396 58.5333 58.2336 58.482 58.2546 58.4419C59.1077 56.8191 59.9412 55.2341 60.7566 53.6836C60.9464 53.2923 61.1218 52.9023 61.2398 52.4928C61.3135 52.2922 61.3303 52.0809 61.3788 51.8766C61.3858 51.67 61.4241 51.4601 61.3877 51.2577C61.3546 50.85 61.1913 50.46 60.9072 50.1764C60.6302 49.89 60.2449 49.7002 59.8624 49.6237L59.9534 49.5892C57.8338 52.1178 55.8272 54.5125 53.9134 56.7958L53.9274 56.7734C52.6978 59.6103 51.5102 62.3064 50.3264 64.8336C50.0269 65.4637 49.7326 66.0855 49.421 66.6891C49.2666 66.9918 49.109 67.2889 48.9294 67.5786C48.7279 67.8748 48.5688 68.1211 48.407 68.4168C47.7684 69.5619 47.19 70.6977 46.6219 71.7892C44.3713 76.1687 42.471 79.9683 40.9121 83.0744C39.3584 86.18 38.1498 88.5952 37.3275 90.2395C36.9175 91.0562 36.604 91.6799 36.3909 92.1048C36.18 92.5237 36.0648 92.7359 36.0648 92.7359C36.0648 92.7359 36.1632 92.5157 36.3675 92.0917C36.5756 91.6645 36.8811 91.0366 37.2808 90.2148C38.0934 88.5654 39.287 86.1427 40.8216 83.0278C42.3665 79.9147 44.2537 76.1085 46.4931 71.7211C47.0585 70.6268 47.6331 69.491 48.2722 68.3384C48.4224 68.0558 48.6262 67.7465 48.7978 67.4904C48.969 67.2129 49.1272 66.9153 49.2792 66.6145C49.5875 66.0137 49.8805 65.3919 50.1776 64.7622C51.354 62.2359 52.5364 59.5371 53.7599 56.6997C53.7636 56.6913 53.7683 56.6834 53.7739 56.6768C55.6835 54.3903 57.6864 51.9923 59.8018 49.46L59.8046 49.4567C59.827 49.4301 59.861 49.4194 59.8932 49.4255C60.3312 49.5127 60.7351 49.7133 61.0519 50.0342C61.3709 50.3504 61.5547 50.7931 61.5906 51.2362C61.6288 51.4587 61.5901 51.6803 61.5817 51.9023C61.5323 52.1168 61.5132 52.3417 61.4376 52.5488C61.3163 52.9732 61.1335 53.38 60.9418 53.7765C60.1278 55.3283 59.2961 56.9152 58.4444 58.5403L58.2746 58.4153C61.2855 55.3899 64.4238 52.2372 67.6777 48.9674L67.681 48.9641C67.7052 48.9394 67.7393 48.9301 67.771 48.9348C68.2421 49.0089 68.6838 49.1848 69.0668 49.4754C69.4469 49.7669 69.7119 50.2165 69.7856 50.6923C69.8635 51.1681 69.7958 51.6537 69.6498 52.0982C69.5239 52.5539 69.3135 52.9742 69.0999 53.3884C68.209 55.0307 67.0732 56.5341 65.8702 58.0085L65.7042 57.8443C68.4613 55.4496 71.2782 53.0036 74.1459 50.5132L74.1487 50.5109C74.1753 50.4876 74.2103 50.4796 74.2425 50.4852C74.6501 50.5622 75.027 50.7068 75.3825 50.912C75.7314 51.1196 76.0611 51.392 76.2762 51.753C76.7268 52.4755 76.6871 53.386 76.4399 54.1482C76.3051 54.5307 76.1656 54.9127 75.9487 55.2626C75.7468 55.6175 75.5107 55.9408 75.2817 56.2724C74.8101 56.9231 74.3171 57.5593 73.8143 58.19C71.796 60.706 69.6536 63.166 67.4771 65.6382C66.6986 66.5109 65.9225 67.3804 65.2037 68.1859L65.0498 68.0012C66.4248 67.1415 67.7929 66.2861 69.1531 65.4357C70.502 64.5598 71.9266 63.8335 73.0428 62.707C73.6314 62.18 74.1944 61.6142 74.8978 61.1986C75.0788 61.1029 75.2673 61.011 75.4795 60.9719C75.688 60.9135 75.9254 60.9597 76.1185 61.0148C76.515 61.144 76.8644 61.3828 77.1396 61.6888C77.7147 62.3017 77.8257 63.2276 77.6088 63.9879C77.4054 64.7664 76.9749 65.4437 76.5019 66.0575C75.5243 67.2721 74.354 68.2717 73.1874 69.2345C72.0124 70.1907 70.8099 71.0877 69.6037 71.9525C68.3965 72.8163 67.1833 73.6457 65.9687 74.4433C65.3618 74.8435 64.7526 75.232 64.1402 75.6108C63.5263 75.9947 62.8896 76.3203 62.2707 76.665L62.322 76.6062C61.8863 77.6827 61.3723 78.7089 60.7986 79.6721C60.2192 80.6298 59.569 81.5221 58.7863 82.2315L58.8185 82.1821C57.6333 85.8595 56.4424 89.4153 55.1182 92.7653C54.7875 93.603 54.4348 94.4226 54.0491 95.2192C53.6601 96.0192 53.1624 96.7483 52.619 97.4218C51.5196 98.761 50.2289 99.8753 48.823 100.735L48.8664 100.684C46.9838 105.754 45.23 110.478 43.6721 114.674C43.6562 114.717 43.6082 114.739 43.5653 114.723C43.5587 114.721 43.5522 114.717 43.5466 114.713C37.7286 110.683 32.7358 107.224 28.7631 104.471C28.7379 104.454 28.7309 104.419 28.7467 104.394C31.0874 100.653 32.9116 97.7376 34.1538 95.7533C34.7746 94.7673 35.2495 94.013 35.5718 93.5013C35.8932 92.9924 36.0648 92.7359 36.0648 92.7359Z" fill="#894536"/>
<path d="M67.1435 56.391C67.1561 56.4022 66.9709 56.635 66.6257 57.0473C66.2796 57.4587 65.7693 58.046 65.127 58.7615C63.8387 60.1879 62.0186 62.1269 59.8767 64.1355C58.1784 65.7298 56.5258 67.1184 55.1395 68.1613L55.1241 68.173L55.1068 68.1777C53.8283 68.5392 52.8674 69.0966 52.2401 69.5257C51.6118 69.9595 51.296 70.2585 51.2787 70.2389C51.2722 70.2319 51.3445 70.1507 51.4919 70.008C51.6407 69.8671 51.866 69.6666 52.1748 69.4343C52.7895 68.973 53.7523 68.3796 55.0523 67.9883L55.0201 68.0046C56.383 66.943 58.0175 65.5474 59.7111 63.9577C61.847 61.9553 63.6825 60.0391 65.0016 58.6445C65.6373 57.9653 66.1621 57.4051 66.5558 56.9839C66.9219 56.5921 67.1309 56.3799 67.1435 56.391Z" fill="#894536"/>
<path d="M58.8157 57.915C58.84 57.9365 58.5041 58.3647 57.929 59.0298C57.3539 59.6945 56.5352 60.592 55.6089 61.5608C54.7049 62.4964 53.8877 63.3421 53.2253 64.0278C52.6129 64.6566 52.229 65.0414 52.2034 65.0185C52.1791 64.9971 52.5182 64.5712 53.0994 63.9112C53.6797 63.2507 54.5076 62.3616 55.433 61.3933C56.3314 60.4534 57.1435 59.6031 57.8017 58.9141C58.408 58.2798 58.7896 57.8922 58.8157 57.915Z" fill="#894536"/>
<path d="M55.21 72.8889C58.7867 71.7102 62.2034 70.0478 65.3384 67.9609Z" fill="#A36957"/>
<path d="M65.3381 67.959C65.3474 67.973 65.2238 68.0728 64.9924 68.2417C64.7615 68.4115 64.4182 68.6442 63.9872 68.9208C63.1253 69.4745 61.8994 70.1877 60.4931 70.8729C59.0854 71.5567 57.7677 72.0814 56.8002 72.4178C56.3165 72.5861 55.9219 72.7125 55.6458 72.7895C55.3701 72.8674 55.2153 72.9033 55.2101 72.887C55.1985 72.852 55.7918 72.6333 56.7401 72.2568C57.6884 71.8809 58.9874 71.3347 60.3867 70.6546C61.7847 69.9736 63.0161 69.2884 63.8977 68.7743C64.7793 68.2603 65.318 67.9282 65.3381 67.959Z" fill="#894536"/>
<path d="M34.5063 94.5508C33.989 95.2407 18.642 118.347 18.642 118.347C18.642 118.347 4.14762 140.929 2.02996 147.282C-1.06165 156.558 -1.75199 172.638 8.24908 176.949C18.2506 181.26 21.6976 181.4 33.7683 176.744C45.839 172.088 54.6371 164.814 54.6371 164.814L52.2671 122.789L42.5333 127.785L50.9098 105.294L34.5063 94.5508Z" fill="#FF5310"/>
<path d="M163.431 130.336C163.431 130.336 171.225 136.572 174.046 157.819C175.827 171.233 180.881 203.958 180.881 203.958L151.403 203.958C151.403 203.958 145.502 161.865 146.105 161.231C146.708 160.596 163.431 130.336 163.431 130.336Z" fill="#FF5310"/>
<path d="M52.2672 122.788L84.1591 116.138C84.1591 116.138 86.6434 129.348 103.323 126.472C120.482 123.513 120.689 111.719 120.689 111.719C120.689 111.719 149.308 121.545 154.847 124.023C160.386 126.502 163.432 130.335 163.432 130.335C163.432 130.335 153.264 169.793 152.948 170.288C152.631 170.784 152.315 204.161 151.523 203.996C150.732 203.831 56.5833 203.493 56.5833 203.493L53.7212 163.953L43.9053 129.972L52.2672 122.788Z" fill="#FF5310"/>
<path d="M46.8805 116.613C46.8884 116.617 46.8423 116.751 46.7476 117.003C46.6431 117.275 46.5018 117.642 46.324 118.104C45.9593 119.061 45.4257 120.443 44.7988 122.163C43.5342 125.599 41.9101 130.39 40.1632 135.697C39.3008 138.36 38.3763 140.855 37.8594 143.218C37.5763 144.395 37.316 145.518 37.0222 146.557C36.7372 147.597 36.3953 148.55 36.0562 149.4C35.7203 150.252 35.4419 151.029 35.2096 151.718C34.9787 152.411 34.7175 152.986 34.4968 153.448C34.2753 153.91 34.0952 154.265 33.9702 154.504C33.8452 154.743 33.7762 154.867 33.7683 154.863C33.7608 154.86 33.8154 154.728 33.9259 154.483C34.0453 154.218 34.2072 153.86 34.4105 153.408C34.6177 152.941 34.863 152.367 35.0804 151.675C35.3001 150.982 35.5697 150.195 35.8957 149.338C36.5856 147.642 37.1047 145.529 37.6416 143.166C38.1496 140.788 39.0727 138.275 39.9323 135.621C41.6792 130.313 43.3304 125.527 44.6374 122.103C45.2853 120.389 45.8441 119.016 46.2359 118.069C46.4318 117.613 46.5871 117.252 46.7019 116.985C46.8115 116.738 46.8726 116.611 46.8805 116.613Z" fill="#263238"/>
<path d="M54.8986 180.208C54.8921 180.209 54.8795 180.115 54.8613 179.934C54.8431 179.736 54.8193 179.472 54.789 179.138C54.7321 178.421 54.6519 177.408 54.5516 176.138C54.3636 173.548 54.0996 169.917 53.7903 165.659L53.7927 165.676C53.2082 163.03 52.524 160.132 51.7147 157.12C50.0537 150.88 48.089 145.352 46.2171 141.559C45.3132 139.646 44.3751 138.21 43.7277 137.223C43.3881 136.74 43.0961 136.385 42.9147 136.132C42.8298 136.016 42.7608 135.921 42.7053 135.845C42.6591 135.78 42.6367 135.745 42.64 135.742C42.6432 135.74 42.6717 135.769 42.7239 135.829C42.7846 135.901 42.8597 135.99 42.9525 136.101C43.147 136.344 43.452 136.691 43.8051 137.168C44.4792 138.142 45.4442 139.572 46.3715 141.482C48.29 145.27 50.2859 150.807 51.9498 157.057C52.7604 160.074 53.4396 162.977 54.0133 165.628L54.0152 165.636L54.0156 165.644C54.2894 169.903 54.5227 173.538 54.6892 176.129C54.7624 177.4 54.8212 178.415 54.8627 179.133C54.8781 179.467 54.8902 179.733 54.8996 179.932C54.9047 180.114 54.9047 180.208 54.8986 180.208Z" fill="#263238"/>
<path d="M151.405 203.963C151.4 203.963 151.397 203.911 151.394 203.809C151.392 203.694 151.39 203.546 151.386 203.358C151.385 202.945 151.383 202.363 151.381 201.621C151.387 200.097 151.395 197.919 151.406 195.233C151.451 189.825 151.512 182.376 151.581 174.142V174.135L151.582 174.127C151.587 174.087 151.593 174.043 151.599 173.999C152.705 165.807 153.707 158.393 154.433 153.008C154.806 150.335 155.108 148.167 155.32 146.651C155.428 145.913 155.513 145.334 155.573 144.924C155.603 144.737 155.627 144.59 155.645 144.476C155.663 144.375 155.674 144.324 155.678 144.324C155.682 144.325 155.679 144.377 155.67 144.479C155.658 144.594 155.642 144.743 155.622 144.931C155.572 145.342 155.503 145.923 155.414 146.663C155.221 148.183 154.945 150.354 154.604 153.031C153.895 158.418 152.919 165.836 151.84 174.031C151.834 174.075 151.829 174.119 151.823 174.16L151.824 174.146C151.728 182.379 151.641 189.827 151.578 195.235C151.535 197.921 151.5 200.099 151.476 201.623C151.458 202.365 151.445 202.946 151.435 203.359C151.428 203.547 151.423 203.696 151.419 203.811C151.414 203.911 151.409 203.963 151.405 203.963Z" fill="#263238"/>
<path d="M83.4591 126.196C83.4012 126.185 83.7604 124.972 84.7409 123.793C85.7111 122.606 86.8315 122.02 86.8534 122.074C86.8972 122.136 85.8669 122.797 84.9279 123.947C83.9782 125.088 83.529 126.227 83.4591 126.196Z" fill="#263238"/>
<path d="M88.2651 129.224C88.2068 129.235 88.1536 128.063 88.7539 126.786C89.3416 125.504 90.2689 124.787 90.2983 124.839C90.3538 124.891 89.5361 125.659 88.9745 126.889C88.3971 128.111 88.3411 129.232 88.2651 129.224Z" fill="#263238"/>
<path d="M94.5744 131.888C94.5072 131.888 94.4531 130.696 94.4531 129.225C94.4531 127.754 94.5077 126.562 94.5744 126.562C94.6411 126.562 94.6957 127.755 94.6957 129.225C94.6957 130.696 94.6416 131.888 94.5744 131.888Z" fill="#263238"/>
<path d="M102.238 131.612C102.189 131.647 101.521 130.698 101.087 129.348C100.644 128 100.626 126.84 100.686 126.84C100.76 126.832 100.885 127.958 101.318 129.273C101.741 130.591 102.302 131.575 102.238 131.612Z" fill="#263238"/>
<path d="M109.92 130.628C109.859 130.656 109.276 129.49 108.618 128.024C107.961 126.558 107.477 125.348 107.538 125.321C107.6 125.293 108.182 126.459 108.84 127.925C109.497 129.391 109.981 130.601 109.92 130.628Z" fill="#263238"/>
<path d="M117.399 127.301C117.337 127.339 116.633 126.231 115.598 124.998C114.568 123.759 113.605 122.869 113.653 122.815C113.691 122.766 114.739 123.586 115.784 124.842C116.834 126.094 117.453 127.271 117.399 127.301Z" fill="#263238"/>
<path d="M123.04 122.715C122.985 122.767 122.001 121.707 120.551 120.695C119.107 119.673 117.778 119.105 117.808 119.036C117.82 119.007 118.168 119.113 118.703 119.354C119.238 119.595 119.956 119.981 120.691 120.497C121.424 121.013 122.031 121.558 122.438 121.98C122.846 122.403 123.063 122.695 123.04 122.715Z" fill="#263238"/>
<path d="M126.173 117.037C126.124 117.102 125.013 115.991 123.235 115.375C121.465 114.734 119.903 114.893 119.906 114.812C119.903 114.785 120.285 114.707 120.912 114.711C121.537 114.714 122.409 114.826 123.316 115.146C124.221 115.468 124.969 115.93 125.456 116.323C125.946 116.716 126.192 117.018 126.173 117.037Z" fill="#263238"/>
<path d="M79.7512 121.433C79.7106 121.389 80.692 120.527 82.1417 119.856C83.5877 119.177 84.8784 118.978 84.8863 119.037C84.9036 119.11 83.6605 119.411 82.2444 120.077C80.8245 120.733 79.7955 121.493 79.7512 121.433Z" fill="#263238"/>
<path d="M75.0616 197.154C75.0597 197.15 75.1045 197.125 75.1927 197.079C75.2934 197.029 75.4235 196.964 75.5877 196.883C75.952 196.708 76.4642 196.462 77.1167 196.149C78.461 195.508 80.3809 194.592 82.7472 193.464C87.498 191.189 94.0394 188.004 101.207 184.37C108.375 180.734 114.811 177.337 119.453 174.848C121.761 173.606 123.634 172.598 124.945 171.893C125.584 171.551 126.085 171.283 126.441 171.093C126.603 171.009 126.733 170.941 126.832 170.89C126.922 170.846 126.968 170.825 126.97 170.829C126.972 170.832 126.929 170.86 126.845 170.912C126.748 170.969 126.622 171.043 126.464 171.136C126.114 171.336 125.62 171.617 124.991 171.976C123.71 172.702 121.846 173.736 119.534 175C114.913 177.528 108.488 180.949 101.316 184.587C94.1467 188.222 87.5913 191.384 82.8209 193.619C80.436 194.737 78.5002 195.63 77.1569 196.234C76.4959 196.53 75.9772 196.762 75.6083 196.927C75.4399 196.999 75.3065 197.057 75.2029 197.102C75.1115 197.14 75.0634 197.158 75.0616 197.154Z" fill="#263238"/>
</svg>
