<svg width="181" height="216" viewBox="0 0 181 216" fill="none" xmlns="http://www.w3.org/2000/svg">
<path d="M36.4474 88.4491C36.0365 88.4491 35.6421 88.2181 35.4517 87.8231L33.073 82.871C32.9227 82.5594 32.9282 82.1956 33.0862 81.889C33.2442 81.5818 33.5371 81.3662 33.8778 81.3069C34.7703 81.1511 35.5894 80.591 36.1237 79.7708C36.6158 79.016 36.7881 78.141 36.5961 77.3697C36.4057 76.6005 35.8428 75.9011 35.0512 75.449C34.2036 74.9652 33.1981 74.8253 32.3571 75.0771C30.64 75.59 29.41 77.6006 29.6723 79.468C29.7567 80.0715 29.3371 80.6288 28.7336 80.7139C28.1197 80.7978 27.5722 80.3781 27.4878 79.7747C27.0758 76.8397 28.9766 73.7835 31.7267 72.9628C33.1525 72.5371 34.7649 72.7445 36.1451 73.5333C37.4579 74.2827 38.4026 75.4874 38.7378 76.8392C39.0763 78.2024 38.7976 79.7105 37.9719 80.9761C37.3756 81.8912 36.55 82.6087 35.6069 83.0525L37.4415 86.8691C37.7048 87.4182 37.4738 88.0777 36.9241 88.341C36.77 88.4139 36.6076 88.4491 36.4474 88.4491Z" fill="#E0E0E0"/>
<path d="M38.817 89.8818C39.0441 90.3256 38.8685 90.8692 38.4253 91.0964C37.9814 91.3235 37.4378 91.1485 37.2107 90.7047C36.9836 90.2608 37.1591 89.7172 37.6024 89.4901C38.0456 89.2629 38.5898 89.438 38.817 89.8818Z" fill="#E0E0E0"/>
<path d="M6.29653 71.8698C6.00961 71.8698 5.73422 71.7085 5.60146 71.4326L3.94032 67.9742C3.83553 67.757 3.83883 67.503 3.94909 67.2885C4.05936 67.074 4.26398 66.9231 4.50207 66.882C5.12528 66.7733 5.69746 66.3822 6.0705 65.8089C6.41392 65.2817 6.53462 64.6706 6.40076 64.1319C6.268 63.5948 5.87466 63.106 5.32167 62.7906C4.72974 62.4526 4.02754 62.355 3.44 62.5305C2.24077 62.8887 1.38222 64.2926 1.5649 65.5966C1.62415 66.0179 1.33065 66.4074 0.909333 66.4667C0.480333 66.5254 0.0985124 66.2319 0.0392642 65.8111C-0.248748 63.7616 1.07885 61.627 2.99948 61.0537C3.99517 60.7564 5.12089 60.9012 6.08532 61.452C7.00202 61.9753 7.66198 62.8169 7.89623 63.7605C8.13267 64.7123 7.93792 65.7656 7.36135 66.6494C6.94497 67.2885 6.36839 67.7893 5.70953 68.0993L6.9905 70.7649C7.17482 71.1484 7.01299 71.6087 6.62952 71.793C6.522 71.8456 6.40844 71.8698 6.29653 71.8698Z" fill="#F5F5F5"/>
<path d="M7.95004 72.8586C8.10858 73.1686 7.98625 73.5482 7.67629 73.7068C7.36634 73.8653 6.98671 73.743 6.82817 73.433C6.66962 73.1231 6.79196 72.7434 7.10191 72.5849C7.41132 72.4264 7.79095 72.5492 7.95004 72.8586Z" fill="#F5F5F5"/>
<path d="M143.182 73.7222C143.305 73.9817 143.277 74.2993 143.084 74.5374L140.669 77.5185C140.517 77.7061 140.286 77.812 140.045 77.8037C139.804 77.7961 139.58 77.6754 139.441 77.4779C139.076 76.9611 138.478 76.6111 137.8 76.5189C137.177 76.4339 136.573 76.5864 136.144 76.9381C135.715 77.2881 135.441 77.8526 135.392 78.4873C135.34 79.167 135.552 79.8434 135.962 80.2987C136.799 81.2297 138.436 81.4053 139.536 80.6817C139.891 80.448 140.369 80.5467 140.603 80.9022C140.839 81.2648 140.738 81.7355 140.383 81.9692C138.653 83.1064 136.156 82.819 134.816 81.3285C134.122 80.5555 133.771 79.4759 133.856 78.3688C133.937 77.316 134.415 76.3598 135.169 75.7443C135.928 75.1233 136.963 74.849 138.009 74.9916C138.765 75.0948 139.464 75.4014 140.026 75.8645L141.887 73.5664C142.156 73.2361 142.641 73.1851 142.971 73.4534C143.063 73.5296 143.134 73.6213 143.182 73.7222Z" fill="#F5F5F5"/>
<path d="M143.373 71.8008C143.585 71.5249 143.981 71.4733 144.257 71.6851C144.533 71.8974 144.584 72.2929 144.372 72.5688C144.16 72.8448 143.765 72.8963 143.489 72.6846C143.212 72.4728 143.161 72.0768 143.373 71.8008Z" fill="#F5F5F5"/>
<path d="M135.139 2.1597C135.262 2.41919 135.234 2.73682 135.041 2.97491L132.626 5.95597C132.475 6.14359 132.243 6.24947 132.002 6.24124C131.761 6.23356 131.538 6.11287 131.398 5.91537C131.033 5.3986 130.435 5.0486 129.757 4.95644C129.134 4.8714 128.53 5.02391 128.101 5.37556C127.672 5.72556 127.398 6.29007 127.35 6.92479C127.298 7.6045 127.509 8.28092 127.92 8.73625C128.756 9.66721 130.393 9.84276 131.493 9.11917C131.849 8.88546 132.327 8.98421 132.56 9.3397C132.797 9.70232 132.695 10.173 132.34 10.4067C130.61 11.544 128.113 11.2565 126.773 9.76596C126.079 8.99299 125.727 7.91335 125.814 6.80629C125.894 5.75354 126.373 4.79734 127.126 4.18182C127.885 3.56136 128.92 3.28651 129.966 3.42915C130.722 3.53228 131.421 3.83895 131.983 4.30196L133.844 2.0039C134.113 1.67365 134.598 1.62263 134.928 1.89089C135.021 1.9666 135.091 2.05876 135.139 2.1597Z" fill="#F5F5F5"/>
<path d="M135.33 0.246122C135.542 -0.0298204 135.938 -0.0813895 136.214 0.130368C136.49 0.342674 136.541 0.73821 136.329 1.01415C136.117 1.2901 135.722 1.34166 135.446 1.12991C135.17 0.917601 135.118 0.522065 135.33 0.246122Z" fill="#F5F5F5"/>
<path d="M74.2346 13.1758C74.6076 13.1758 74.9653 13.3853 75.1381 13.7436L77.2968 18.2377C77.4329 18.5202 77.4285 18.8504 77.2853 19.1291C77.1421 19.4084 76.876 19.6037 76.5672 19.6574C75.7569 19.799 75.0141 20.307 74.5292 21.0514C74.0826 21.7366 73.9262 22.5304 74.1001 23.231C74.273 23.9288 74.7837 24.564 75.5024 24.9744C76.2715 25.4133 77.1838 25.5405 77.9474 25.3118C79.506 24.8466 80.6218 23.0219 80.3837 21.3268C80.3069 20.7793 80.6882 20.2729 81.2357 20.1961C81.7931 20.1199 82.2896 20.5012 82.3664 21.0481C82.7405 23.7115 81.0152 26.4852 78.5196 27.2302C77.226 27.6164 75.7624 27.4283 74.5099 26.7123C73.3184 26.0321 72.4615 24.9387 72.157 23.7126C71.8498 22.4755 72.1027 21.1074 72.8515 19.958C73.3925 19.1275 74.1424 18.4763 74.9982 18.0736L73.3332 14.6098C73.094 14.1111 73.3041 13.5132 73.8028 13.274C73.9416 13.2076 74.0892 13.1758 74.2346 13.1758Z" fill="#E0E0E0"/>
<path d="M72.0835 11.8838C71.8772 11.4812 72.0363 10.988 72.4389 10.7817C72.8416 10.5754 73.3348 10.7345 73.5411 11.1372C73.7473 11.5399 73.5882 12.033 73.1856 12.2393C72.7835 12.4456 72.2897 12.2865 72.0835 11.8838Z" fill="#E0E0E0"/>
<path d="M148.656 101.93C149.029 101.93 149.387 102.139 149.56 102.498L151.719 106.992C151.855 107.275 151.85 107.605 151.707 107.884C151.564 108.162 151.298 108.358 150.989 108.412C150.179 108.553 149.436 109.061 148.951 109.806C148.504 110.491 148.348 111.285 148.522 111.985C148.695 112.683 149.206 113.318 149.924 113.728C150.693 114.167 151.606 114.294 152.369 114.066C153.928 113.6 155.044 111.776 154.806 110.081C154.729 109.534 155.11 109.027 155.658 108.951C156.215 108.874 156.711 109.255 156.788 109.803C157.162 112.466 155.437 115.24 152.941 115.985C151.648 116.371 150.184 116.183 148.932 115.467C147.74 114.787 146.883 113.693 146.579 112.467C146.272 111.23 146.525 109.862 147.273 108.713C147.814 107.882 148.564 107.231 149.42 106.829L147.756 103.365C147.516 102.866 147.727 102.268 148.225 102.029C148.363 101.962 148.511 101.93 148.656 101.93Z" fill="#E0E0E0"/>
<path d="M146.507 100.626C146.301 100.223 146.46 99.7302 146.863 99.5239C147.265 99.3176 147.759 99.4767 147.965 99.8794C148.171 100.282 148.012 100.775 147.609 100.982C147.207 101.188 146.714 101.029 146.507 100.626Z" fill="#E0E0E0"/>
<path d="M101.932 29.8024C101.925 29.8024 101.918 29.8024 101.911 29.8024C101.457 29.7908 101.098 29.4129 101.109 28.9586L101.295 21.6343C101.302 21.3765 101.429 21.1368 101.639 20.9864C101.849 20.8361 102.117 20.7922 102.362 20.869C103.687 21.2799 105.186 21.0923 106.476 20.3545C107.674 19.6693 108.524 18.5842 108.806 17.3778C109.088 16.1775 108.812 14.8208 108.05 13.655C107.232 12.4026 105.995 11.5419 104.656 11.2933C101.961 10.7919 99.0077 12.5897 98.069 15.297C97.9203 15.726 97.4497 15.9536 97.0223 15.8044C96.5928 15.6558 96.3656 15.1867 96.5143 14.7572C97.7086 11.3131 101.496 9.03314 104.956 9.67444C106.735 10.0047 108.366 11.1271 109.428 12.7542C110.434 14.2947 110.791 16.1166 110.408 17.7525C110.022 19.4016 108.887 20.8707 107.294 21.7825C105.935 22.5598 104.384 22.8654 102.915 22.6695L102.754 28.9998C102.743 29.448 102.377 29.8024 101.932 29.8024Z" fill="#263238"/>
<path d="M103.206 33.4263C103.206 34.0912 102.667 34.6299 102.002 34.6299C101.338 34.6299 100.799 34.0912 100.799 33.4263C100.799 32.7614 101.338 32.2227 102.002 32.2227C102.667 32.2227 103.206 32.7614 103.206 33.4263Z" fill="#263238"/>
<path d="M11.8887 114.239C10.6538 114.239 9.43429 113.882 8.4567 113.149C7.3041 112.285 6.53827 110.91 6.35559 109.377C6.18278 107.924 6.57283 106.497 7.42699 105.464C8.28828 104.421 9.61862 103.773 11.0768 103.685C12.2404 103.613 13.3814 103.901 14.3272 104.484L16.4963 100.372C16.7081 99.9708 17.2062 99.8167 17.6083 100.029C18.0099 100.241 18.1641 100.739 17.9523 101.141L15.3295 106.112C15.2093 106.34 14.9888 106.499 14.7343 106.54C14.4819 106.583 14.2208 106.502 14.0343 106.324C13.3013 105.627 12.2617 105.263 11.175 105.329C10.1711 105.389 9.26697 105.82 8.69589 106.513C8.12699 107.202 7.8697 108.175 7.9893 109.184C8.11876 110.272 8.64871 111.237 9.44307 111.833C11.0236 113.019 13.6074 112.793 15.0848 111.341C15.4085 111.022 15.9291 111.027 16.2484 111.351C16.5666 111.675 16.5622 112.196 16.238 112.514C15.0821 113.651 13.4725 114.239 11.8887 114.239Z" fill="#263238"/>
<path d="M17.8609 97.2674C18.0875 96.8104 18.641 96.6239 19.098 96.8499C19.555 97.0765 19.7415 97.63 19.5155 98.087C19.2889 98.544 18.7354 98.7305 18.2784 98.5045C17.8214 98.2779 17.6343 97.7238 17.8609 97.2674Z" fill="#263238"/>
<path d="M177.965 100.393C177.71 100.393 177.459 100.275 177.298 100.052L174.005 95.4977C173.854 95.2887 173.809 95.021 173.884 94.7747C173.96 94.5284 174.146 94.3314 174.389 94.2426C175.339 93.8953 176.126 93.1218 176.548 92.1211C176.94 91.1946 176.954 90.1928 176.587 89.3738C176.221 88.5586 175.463 87.8959 174.505 87.5563C173.473 87.1909 172.372 87.2376 171.486 87.6852C169.723 88.5767 168.779 90.9927 169.426 92.961C169.568 93.3928 169.333 93.858 168.901 93.9995C168.47 94.1416 168.004 93.9068 167.862 93.4751C166.961 90.7316 168.254 87.4757 170.744 86.2172C172.03 85.5671 173.601 85.4908 175.055 86.006C176.434 86.4948 177.54 87.4773 178.088 88.7018C178.641 89.9361 178.632 91.4162 178.064 92.7619C177.609 93.8377 176.848 94.7319 175.907 95.3211L178.631 99.0883C178.897 99.4564 178.814 99.971 178.446 100.237C178.301 100.342 178.132 100.393 177.965 100.393Z" fill="#263238"/>
<path d="M180.809 101.688C181.119 102.093 181.04 102.673 180.635 102.982C180.229 103.291 179.65 103.213 179.341 102.808C179.031 102.402 179.11 101.823 179.515 101.513C179.921 101.204 180.5 101.282 180.809 101.688Z" fill="#263238"/>
<path d="M147.493 181.85L139.138 141.999C139.138 141.999 134.24 122.793 117.378 116.174L116.215 115.817C116.19 115.808 114.615 115.326 114.59 115.317C113.913 115.053 111.144 114.175 110.417 113.948C87.6813 106.067 81.6495 108.118 57.9573 116.202C57.9573 116.202 47.4326 119.034 42.3312 132.764C37.2304 146.494 27.4648 167.967 27.4648 167.967L51.101 176.313L55.6313 169.583V194.431V215.625H83.6798H120.639L118.845 194.431L118.533 168.325" fill="#FF5310"/>
<path d="M81.3238 118.643C81.3364 118.658 81.1433 118.836 80.7817 119.146C80.6029 119.305 80.3785 119.491 80.0998 119.684C79.8239 119.88 79.5189 120.12 79.1497 120.335C78.4338 120.801 77.5291 121.274 76.4884 121.717C75.4406 122.141 74.2518 122.521 72.9714 122.779C71.6877 123.023 70.4429 123.118 69.3123 123.12C68.1816 123.102 67.1651 123.004 66.3263 122.842C65.9033 122.782 65.5308 122.674 65.2011 122.597C64.8703 122.522 64.5922 122.435 64.3667 122.355C63.9147 122.204 63.6684 122.112 63.6749 122.092C63.6919 122.035 64.6887 122.385 66.3592 122.642C67.1931 122.777 68.1975 122.853 69.3123 122.857C70.427 122.84 71.6515 122.739 72.9165 122.499C74.1783 122.245 75.3507 121.877 76.3891 121.473C77.4205 121.05 78.3224 120.601 79.0438 120.162C80.4948 119.296 81.2864 118.596 81.3238 118.643Z" fill="#FAFAFA"/>
<g opacity="0.3">
<path d="M55.6309 187.1L60.961 193.254H66.1984V199.954L120.374 212.481L119.932 207.263L68.9639 189.763H60.4228L56.3045 186.473L55.6309 187.1Z" fill="black"/>
</g>
<path d="M71.5854 181.614L67.0667 180.777C67.0667 180.777 56.3559 169.062 54.3475 168.895C52.6946 168.757 43.5825 168.846 40.4094 168.882C39.8043 168.889 39.3193 169.381 39.3193 169.986C39.3193 170.579 39.7878 171.067 40.3809 171.09L51.1459 171.507L51.1969 172.374L40.4165 172.517C39.3188 172.602 38.6155 174.34 42.1292 174.653L51.1459 174.974V175.534L42.0031 176.813C41.5411 176.877 40.3255 177.113 40.3145 177.579C40.3145 177.579 39.7615 178.726 42.3662 179.051C43.2604 179.163 51.1969 178.899 51.1969 178.899L50.8908 179.613L42.674 181.385C42.0755 181.514 41.6783 182.083 41.7633 182.689C41.85 183.307 42.4068 183.747 43.0278 183.69L51.8081 182.875L60.4232 189.757H71.9442L71.5854 181.614Z" fill="#A36957"/>
<path d="M147.493 181.842L121.199 187.013L118.532 168.316" fill="#FF5310"/>
<path d="M117.697 182.559L68.9629 180.984L68.9711 197.829L101.304 204.251L124.008 207.875C138.118 207.875 149.405 194.924 147.219 180.984L147.159 181L117.697 182.559Z" fill="#FF5310"/>
<path d="M131.114 182.253C131.114 182.266 130.897 182.281 130.483 182.297C130.034 182.309 129.43 182.327 128.671 182.348C127.061 182.377 124.794 182.418 122.008 182.469C116.382 182.551 108.607 182.646 100.019 182.564C91.4283 182.479 83.6541 182.169 78.0376 181.789C75.2294 181.602 72.9587 181.42 71.3925 181.263C70.6365 181.185 70.0358 181.124 69.5898 181.078C69.1778 181.032 68.9622 181.001 68.9639 180.988C68.965 180.975 69.1828 180.979 69.5969 181.001C70.0441 181.029 70.647 181.067 71.4051 181.114C72.9741 181.226 75.2464 181.366 78.0541 181.519C83.6706 181.83 91.4376 182.097 100.024 182.182C108.606 182.263 116.379 182.211 122.006 182.198C124.792 182.199 127.059 182.199 128.67 182.2C129.43 182.208 130.034 182.215 130.482 182.22C130.896 182.229 131.114 182.24 131.114 182.253Z" fill="#263238"/>
<path d="M68.9655 181.133C68.9716 181.133 68.9782 181.235 68.9842 181.432C68.9886 181.646 68.9946 181.935 69.0023 182.305C69.0105 183.088 69.0221 184.207 69.0363 185.625C69.0495 188.506 69.0687 192.601 69.0912 197.529L68.9968 197.412C74.5003 198.593 81.0972 200.053 88.1987 201.544C97.9362 203.603 106.798 205.23 113.242 206.225C116.464 206.72 119.077 207.083 120.885 207.322C121.775 207.439 122.473 207.531 122.967 207.596C123.192 207.629 123.371 207.655 123.508 207.674C123.63 207.694 123.692 207.706 123.691 207.711C123.691 207.715 123.627 207.713 123.505 207.703C123.367 207.69 123.187 207.674 122.96 207.652C122.465 207.6 121.764 207.526 120.872 207.431C119.059 207.226 116.44 206.894 113.212 206.424C106.757 205.479 97.8814 203.883 88.1411 201.822C81.0374 200.331 74.4438 198.854 68.9474 197.645L68.8525 197.624L68.8531 197.528C68.8723 192.6 68.8882 188.505 68.8992 185.624C68.9129 184.205 68.9233 183.087 68.931 182.304C68.9381 181.934 68.9442 181.645 68.9485 181.431C68.9535 181.234 68.9595 181.133 68.9655 181.133Z" fill="#263238"/>
<path d="M64.8035 135.066C64.7838 135.064 64.7975 134.771 64.8386 134.244C64.8721 133.717 64.9253 132.954 64.9456 132.011C64.9994 130.128 64.9144 127.513 64.4349 124.676C63.9351 121.853 63.3037 119.281 62.3239 117.682C61.8444 116.878 61.2876 116.349 60.8679 116.041C60.4417 115.738 60.1685 115.627 60.1811 115.6C60.1849 115.59 60.2546 115.613 60.3846 115.667C60.5179 115.714 60.7006 115.812 60.9305 115.95C61.3803 116.236 61.9794 116.763 62.4945 117.575C63.0162 118.381 63.4589 119.441 63.81 120.649C64.1622 121.854 64.4777 123.2 64.7163 124.63C65.1996 127.489 65.2528 130.128 65.147 132.02C65.1003 132.967 65.0164 133.73 64.9489 134.256C64.8738 134.78 64.8233 135.069 64.8035 135.066Z" fill="#263238"/>
<path d="M118.398 120.254C118.477 120.254 118.541 131.451 118.541 145.261C118.541 159.076 118.477 170.271 118.398 170.271C118.32 170.271 118.256 159.076 118.256 145.261C118.256 131.452 118.319 120.254 118.398 120.254Z" fill="#263238"/>
<path d="M135.219 176.509C135.219 176.563 134.39 176.537 133.072 176.7C132.413 176.777 131.636 176.926 130.788 177.145C129.944 177.377 129.03 177.687 128.108 178.099C127.189 178.52 126.353 179.002 125.621 179.483C124.897 179.975 124.272 180.461 123.779 180.905C122.787 181.787 122.26 182.426 122.219 182.391C122.204 182.379 122.325 182.211 122.56 181.918C122.79 181.622 123.158 181.221 123.643 180.755C124.124 180.286 124.745 179.777 125.473 179.264C126.208 178.763 127.055 178.266 127.99 177.838C128.928 177.419 129.86 177.111 130.722 176.889C131.587 176.681 132.38 176.55 133.05 176.498C133.719 176.441 134.263 176.429 134.638 176.453C135.013 176.47 135.22 176.49 135.219 176.509Z" fill="#263238"/>
<g opacity="0.3">
<path d="M65.2606 178.833C73.4742 173.929 78.5997 165.807 83.61 157.658C88.6203 149.509 93.2845 140.954 100.231 134.378C103.421 131.358 107.152 128.81 108.331 124.578L95.8459 134.5L61.0645 174.5L65.2606 178.833Z" fill="black"/>
</g>
<path d="M42.7126 157.38C42.722 157.488 40.7503 157.413 38.5038 158.178C37.3852 158.561 36.4241 159.049 35.7296 159.403C35.0362 159.761 34.6066 159.986 34.5847 159.95C34.5655 159.918 34.9583 159.632 35.6314 159.226C36.3051 158.824 37.2667 158.3 38.4122 157.907C39.5582 157.516 40.6527 157.369 41.4388 157.332C42.2271 157.298 42.7126 157.346 42.7126 157.38Z" fill="#263238"/>
<path d="M42.7126 157.38C42.722 157.488 40.7503 157.413 38.5038 158.178C37.3852 158.561 36.4241 159.049 35.7296 159.403C35.0362 159.761 34.6066 159.986 34.5847 159.95C34.5655 159.918 34.9583 159.632 35.6314 159.226C36.3051 158.824 37.2667 158.3 38.4122 157.907C39.5582 157.516 40.6527 157.369 41.4388 157.332C42.2271 157.298 42.7126 157.346 42.7126 157.38Z" fill="#263238"/>
<path d="M118.19 175.316C118.164 175.365 117.595 174.815 116.294 174.443C115.007 174.043 112.983 174.05 110.686 174.794C108.36 175.48 105.949 177.128 102.967 178.367C101.479 178.968 99.7887 179.434 98.0096 179.315C96.2283 179.225 94.4848 178.549 92.8286 177.724C91.1642 176.894 89.6166 175.958 88.0416 175.227C86.4715 174.487 84.8504 174.029 83.2666 173.878C80.0925 173.577 77.2052 174.311 75.0509 175.364C72.8598 176.391 71.3934 177.748 70.4756 178.725C70.2535 178.975 70.0549 179.2 69.8799 179.397C69.7273 179.601 69.5957 179.776 69.4843 179.924C69.3839 180.054 69.3022 180.159 69.2358 180.245C69.1782 180.317 69.1469 180.352 69.1431 180.349C69.1387 180.347 69.1623 180.306 69.2117 180.229C69.272 180.138 69.3461 180.027 69.4371 179.89C69.543 179.737 69.6676 179.555 69.8129 179.344C69.9835 179.14 70.1766 178.909 70.3928 178.65C71.2919 177.643 72.7545 176.246 74.9626 175.182C76.0499 174.628 77.3226 174.178 78.7281 173.884C80.1325 173.59 81.6807 173.463 83.2924 173.616C84.9037 173.761 86.5692 174.227 88.159 174.972C89.7532 175.709 91.3068 176.645 92.9559 177.467C94.5979 178.285 96.3023 178.944 98.0266 179.034C99.7475 179.154 101.397 178.708 102.869 178.122C105.817 176.915 108.259 175.274 110.626 174.601C112.959 173.871 115.026 173.895 116.326 174.335C116.98 174.537 117.45 174.797 117.751 174.99C117.885 175.086 117.994 175.164 118.083 175.227C118.156 175.282 118.192 175.312 118.19 175.316Z" fill="#FAFAFA"/>
<path d="M142.018 155.019C142.007 155.055 141.679 154.857 141.031 154.833C140.387 154.794 139.447 155.022 138.452 155.622C137.44 156.19 136.462 157.22 135.08 157.995C134.393 158.376 133.56 158.658 132.68 158.599C131.8 158.549 130.953 158.201 130.153 157.795C129.347 157.388 128.601 156.935 127.827 156.628C127.058 156.31 126.276 156.104 125.519 155.983C124.763 155.858 124.03 155.832 123.349 155.864C122.667 155.89 122.035 155.984 121.468 156.112C120.331 156.363 119.459 156.742 118.878 157.037C118.294 157.33 117.994 157.536 117.978 157.511C117.972 157.503 118.044 157.447 118.185 157.347C118.327 157.247 118.535 157.097 118.825 156.939C119.395 156.611 120.27 156.196 121.422 155.915C121.996 155.771 122.64 155.665 123.337 155.628C124.032 155.584 124.782 155.602 125.559 155.723C126.335 155.839 127.14 156.046 127.933 156.369C128.733 156.684 129.488 157.141 130.281 157.54C131.07 157.941 131.879 158.271 132.696 158.319C133.512 158.378 134.288 158.124 134.955 157.764C136.295 157.031 137.298 156.012 138.352 155.447C139.383 154.855 140.373 154.647 141.039 154.722C141.372 154.75 141.622 154.831 141.783 154.896C141.942 154.968 142.023 155.01 142.018 155.019Z" fill="#FAFAFA"/>
<path d="M117.891 147.513C117.889 147.522 117.76 147.5 117.518 147.448C117.397 147.425 117.249 147.385 117.072 147.355C116.889 147.331 116.683 147.303 116.456 147.273C115.529 147.167 114.157 147.224 112.546 147.673C110.936 148.125 109.117 148.969 107.2 150.084C105.285 151.194 103.229 152.558 100.833 153.544C99.6391 154.034 98.4157 154.406 97.1945 154.54C95.9767 154.684 94.7725 154.594 93.6841 154.299C92.594 154.006 91.6225 153.556 90.7338 153.12C89.845 152.68 89.0326 152.248 88.2739 151.893C86.7663 151.161 85.4448 150.806 84.5116 150.755C84.0459 150.746 83.6827 150.746 83.4386 150.787C83.1933 150.813 83.0628 150.821 83.0606 150.812C83.0584 150.802 83.1857 150.774 83.4303 150.73C83.6744 150.67 84.0409 150.652 84.5165 150.644C85.4673 150.66 86.8283 150.995 88.3583 151.71C89.1286 152.056 89.9493 152.479 90.8374 152.907C91.7262 153.332 92.6889 153.767 93.7516 154.045C94.8115 154.325 95.9756 154.406 97.1611 154.262C98.3493 154.128 99.5475 153.763 100.725 153.28C103.087 152.308 105.135 150.961 107.069 149.855C109.003 148.748 110.852 147.911 112.493 147.478C114.135 147.047 115.534 147.021 116.469 147.163C116.698 147.203 116.904 147.239 117.089 147.272C117.266 147.31 117.413 147.36 117.533 147.392C117.771 147.462 117.894 147.504 117.891 147.513Z" fill="#FAFAFA"/>
<path d="M134.879 130.635C134.887 130.653 134.679 130.774 134.292 130.976C133.905 131.177 133.341 131.461 132.625 131.774C131.91 132.086 131.038 132.429 130.026 132.674C129.019 132.926 127.852 133.04 126.657 132.904C125.462 132.778 124.356 132.524 123.343 132.387C122.333 132.241 121.411 132.229 120.651 132.339C119.11 132.546 118.36 133.251 118.335 133.193C118.329 133.186 118.371 133.142 118.458 133.066C118.544 132.988 118.682 132.887 118.868 132.769C119.242 132.537 119.839 132.272 120.619 132.139C121.398 131.999 122.349 131.992 123.377 132.126C124.406 132.251 125.515 132.497 126.685 132.619C129.037 132.899 131.121 132.148 132.547 131.587C133.267 131.3 133.843 131.044 134.244 130.875C134.646 130.705 134.871 130.617 134.879 130.635Z" fill="#FAFAFA"/>
<path d="M63.9456 139.773C63.9324 139.809 63.6236 139.564 62.974 139.539C62.3305 139.504 61.3919 139.77 60.4604 140.471C59.9847 140.806 59.4921 141.223 58.9046 141.606C58.3197 141.996 57.6044 142.288 56.827 142.439C55.2591 142.739 53.491 142.448 51.797 141.839C50.0974 141.225 48.574 140.444 47.1186 139.931C46.3933 139.669 45.6873 139.473 45.0158 139.356C44.3427 139.245 43.7047 139.212 43.1264 139.242C41.9662 139.3 41.0599 139.626 40.4981 139.945C39.9309 140.263 39.6687 140.523 39.6489 140.499C39.6423 140.492 39.7049 140.426 39.8321 140.306C39.9572 140.186 40.1591 140.023 40.4422 139.849C40.9995 139.492 41.9234 139.126 43.1138 139.041C43.7074 138.997 44.3619 139.019 45.0537 139.123C45.7449 139.232 46.4685 139.425 47.2063 139.684C48.6881 140.19 50.2192 140.967 51.8935 141.57C53.5585 142.169 55.2756 142.455 56.7798 142.181C57.5276 142.042 58.2073 141.774 58.7784 141.407C59.3539 141.044 59.8547 140.637 60.3463 140.306C61.3134 139.61 62.3141 139.356 62.9822 139.429C63.318 139.456 63.5676 139.549 63.7229 139.629C63.8787 139.707 63.9494 139.767 63.9456 139.773Z" fill="#FAFAFA"/>
<path d="M94.8528 181.794C94.8599 181.786 94.9197 181.839 95.0289 181.945C95.1425 182.048 95.2867 182.22 95.4612 182.452C95.7947 182.921 96.2051 183.686 96.3581 184.725C96.5079 185.747 96.3894 187.074 95.6291 188.258C94.9005 189.44 93.6569 190.375 92.9596 191.732C92.6244 192.412 92.5405 193.164 92.6864 193.868C92.8214 194.572 93.1077 195.221 93.3985 195.827C93.9981 197.025 94.5522 198.187 94.5313 199.262C94.5149 200.336 93.9767 201.112 93.5049 201.451C93.2663 201.626 93.0463 201.702 92.8987 201.741C92.7478 201.771 92.6678 201.776 92.6667 201.767C92.6551 201.734 92.998 201.718 93.4363 201.363C93.8615 201.019 94.3399 200.266 94.3294 199.264C94.3251 198.252 93.7808 197.144 93.162 195.942C92.8614 195.332 92.5597 194.667 92.4116 193.92C92.2508 193.176 92.3408 192.335 92.7029 191.607C93.0655 190.881 93.5856 190.292 94.0765 189.743C94.5692 189.194 95.0498 188.674 95.408 188.116C96.1404 187.004 96.2781 185.741 96.1585 184.751C96.0361 183.747 95.668 182.992 95.3696 182.514C95.0596 182.038 94.8309 181.814 94.8528 181.794Z" fill="#FAFAFA"/>
<path d="M117.848 205.867C117.841 205.874 117.771 205.813 117.642 205.688C117.52 205.558 117.354 205.345 117.218 205.028C116.926 204.402 116.891 203.333 117.357 202.196C117.584 201.63 117.946 201.043 118.423 200.514C118.889 199.972 119.442 199.45 119.997 198.887C120.551 198.325 121.113 197.711 121.522 196.971C121.933 196.234 122.165 195.372 122.256 194.475C122.438 192.669 122.113 190.934 122.021 189.34C121.906 187.751 122.044 186.26 122.553 185.138C123.04 184.011 123.773 183.277 124.357 182.929C124.647 182.751 124.894 182.651 125.064 182.595C125.235 182.545 125.326 182.524 125.329 182.533C125.341 182.565 124.967 182.646 124.417 183.022C123.869 183.388 123.187 184.116 122.738 185.216C122.271 186.31 122.156 187.75 122.283 189.322C122.386 190.895 122.726 192.641 122.54 194.504C122.446 195.429 122.203 196.332 121.767 197.107C121.332 197.884 120.748 198.51 120.184 199.072C119.047 200.183 117.981 201.159 117.543 202.274C117.071 203.36 117.074 204.378 117.321 204.987C117.554 205.609 117.881 205.842 117.848 205.867Z" fill="#FAFAFA"/>
<path d="M120.668 213.147C120.668 213.147 120.478 213.313 120.056 213.534C119.64 213.757 118.97 214.017 118.066 214.102C117.165 214.196 116.041 214.099 114.809 213.736C113.568 213.388 112.253 212.721 110.866 211.914C109.472 211.122 107.975 210.175 106.198 209.578C104.424 208.982 102.368 208.93 100.31 209.377C98.2433 209.808 96.1773 210.657 94.0482 211.543C91.9174 212.423 89.7017 213.391 87.2725 213.883C86.0623 214.133 84.8241 214.21 83.6205 214.088C82.4136 213.974 81.2577 213.597 80.2126 213.078C78.1126 212.029 76.4383 210.509 74.7272 209.273C73.8725 208.652 73.0162 208.074 72.1187 207.641C71.8937 207.534 71.671 207.428 71.4499 207.322C71.225 207.225 70.9924 207.151 70.7664 207.066C70.3182 206.882 69.8524 206.779 69.4009 206.658C67.579 206.213 65.8 206.225 64.226 206.449C62.6488 206.681 61.2576 207.127 60.1149 207.675C59.8241 207.802 59.563 207.964 59.3002 208.098C59.0358 208.229 58.795 208.378 58.57 208.532C58.3435 208.682 58.1218 208.819 57.9189 208.961C57.7241 209.114 57.5387 209.26 57.3626 209.398C56.9994 209.662 56.7273 209.953 56.4728 210.184C56.2133 210.413 56.0218 210.633 55.8677 210.811C55.7179 210.977 55.5989 211.109 55.5078 211.21C55.4255 211.299 55.3811 211.343 55.3772 211.34C55.3734 211.337 55.4096 211.287 55.4848 211.192C55.5709 211.086 55.6828 210.948 55.8238 210.773C55.9719 210.588 56.1579 210.361 56.4124 210.124C56.6626 209.884 56.9314 209.584 57.2918 209.312C57.4668 209.17 57.6517 209.019 57.8453 208.861C58.0478 208.714 58.2694 208.573 58.496 208.417C58.7204 208.259 58.9623 208.105 59.2273 207.968C59.4906 207.829 59.7534 207.663 60.0452 207.53C61.1951 206.961 62.5984 206.497 64.1959 206.248C65.7901 206.009 67.5966 205.984 69.4541 206.427C69.915 206.547 70.39 206.65 70.8481 206.835C71.0791 206.921 71.3166 206.995 71.5465 207.093C71.7731 207.2 72.0013 207.308 72.2306 207.416C73.1484 207.853 74.0185 208.437 74.8819 209.059C76.6084 210.3 78.2821 211.806 80.3361 212.826C81.3586 213.331 82.4761 213.695 83.6501 213.804C84.8203 213.922 86.0277 213.848 87.2165 213.602C89.6029 213.119 91.8077 212.162 93.9401 211.284C96.0719 210.402 98.1549 209.55 100.256 209.12C102.346 208.671 104.459 208.732 106.272 209.353C108.083 209.973 109.582 210.938 110.967 211.739C112.346 212.556 113.635 213.225 114.854 213.582C116.065 213.955 117.17 214.066 118.056 213.991C118.946 213.924 119.61 213.686 120.031 213.481C120.455 213.28 120.657 213.131 120.668 213.147Z" fill="#FAFAFA"/>
<path d="M90.1456 121.633C96.2668 121.935 101.533 117.344 102.07 111.238C102.389 107.617 102.64 104.524 102.64 104.524C102.64 104.524 111.988 104.288 113.289 95.1422C114.591 85.996 115.731 64.7539 115.731 64.7539C105.718 58.8209 93.2781 58.7721 83.2179 64.6256L81.7247 65.4945L79.318 109.619C78.974 115.932 83.8307 121.321 90.1456 121.633Z" fill="#A36957"/>
<path d="M103.931 88.8313C103.935 88.7314 104.735 88.6749 106.027 88.6634C106.361 88.6705 106.63 88.6294 106.677 88.4549C106.763 88.2629 106.681 87.8943 106.564 87.479C106.347 86.6029 106.128 85.7153 105.898 84.7859C104.994 80.9546 104.418 77.8122 104.613 77.7661C104.807 77.7201 105.698 80.7883 106.603 84.6197C106.814 85.5534 107.014 86.4449 107.213 87.3259C107.285 87.7231 107.456 88.1987 107.216 88.721C107.089 88.9821 106.804 89.1456 106.579 89.1741C106.352 89.212 106.165 89.1879 106.006 89.1747C104.72 89.0551 103.927 88.9311 103.931 88.8313Z" fill="#263238"/>
<path d="M102.671 104.4C102.671 104.4 96.8201 104.121 91.168 99.457C91.168 99.457 93.1358 106.416 102.384 106.777L102.671 104.4Z" fill="#894536"/>
<path d="M115.62 67.0825C115.62 67.0825 109.858 69.4897 102.755 65.4411C98.0942 62.7842 92.5715 61.3074 91.2867 62.2033C90.0019 63.0991 89.4692 68.0233 84.6422 69.2028C84.6422 69.2028 84.4485 78.6435 80.7098 78.1004C76.9717 77.5568 80.1245 63.0925 80.1245 63.0925L89.5631 59.1108L99.6972 57.7695L109.074 59.6232L116.276 62.0288L115.62 67.0825Z" fill="#263238"/>
<path d="M81.6186 75.1374C81.471 75.0496 75.5654 72.4586 74.9531 78.7482C74.3409 85.0373 80.7814 84.3548 80.8094 84.1755C80.8385 83.9961 81.6186 75.1374 81.6186 75.1374Z" fill="#A36957"/>
<path d="M79.1232 81.6186C79.0974 81.5955 79.0063 81.6844 78.8127 81.7513C78.624 81.8161 78.308 81.8435 77.992 81.6888C77.3512 81.3799 76.8942 80.2707 76.9743 79.1345C77.0138 78.5602 77.1866 78.0269 77.4335 77.5957C77.6705 77.1541 77.9991 76.8623 78.3392 76.8348C78.6794 76.7904 78.8972 77.0137 78.9564 77.198C79.0233 77.3818 78.9712 77.5036 79.0036 77.5173C79.0195 77.5348 79.149 77.4251 79.1237 77.1607C79.11 77.0334 79.0508 76.8776 78.9147 76.7427C78.7754 76.6055 78.5598 76.521 78.3244 76.5238C77.8362 76.5101 77.3562 76.9138 77.0852 77.3873C76.7873 77.8607 76.5793 78.4587 76.5349 79.1033C76.4515 80.3744 76.9848 81.623 77.8685 81.9746C78.2997 82.1326 78.6821 82.0355 78.8867 81.9055C79.0974 81.77 79.144 81.6323 79.1232 81.6186Z" fill="#894536"/>
<path d="M88.8177 63.2126C87.5323 64.5819 86.2272 65.9676 84.6319 66.9589C83.0366 67.9503 81.0902 68.5186 79.2601 68.0967C77.43 67.6749 75.8122 66.0905 75.7376 64.2138C75.6629 62.337 77.4969 60.5064 79.3314 60.9085C78.0861 60.931 77.0454 59.5206 77.4333 58.3373C77.8217 57.1539 79.496 56.635 80.4856 57.3909C78.892 57.0925 78.7131 54.5629 79.9826 53.5552C81.252 52.5474 83.1129 52.7674 84.6149 53.3769C86.1175 53.9858 87.4972 54.9299 89.0821 55.2712C91.5678 55.806 94.1187 54.7708 96.317 53.4937C98.5152 52.2166 100.605 50.6542 103.055 49.9772C106.063 49.1461 109.313 49.7534 112.191 50.9608C114.579 51.9631 116.841 53.4147 118.395 55.4873C119.948 57.5599 120.715 60.3149 120.024 62.8116C119.332 65.3082 117.009 67.3808 114.419 67.3907C114.419 67.3907 108.596 67.9771 103.858 64.4601C99.1197 60.9425 89.1287 61.4077 89.1287 61.4077L88.8177 63.2126Z" fill="#263238"/>
<path d="M80.0565 55.9029C80.0444 55.9227 80.1689 56.022 80.4191 56.1937C80.666 56.3714 81.0483 56.6013 81.5503 56.8855C82.557 57.4428 84.0864 58.145 86.085 58.6887C88.0791 59.2274 90.5577 59.5719 93.3001 59.375C96.0557 59.1934 98.9462 58.3058 101.956 57.5696C104.956 56.8306 107.939 56.463 110.512 57.0967C113.083 57.6908 115.113 59.2494 116.006 61.0109C116.911 62.7905 116.803 64.5279 116.48 65.5752C116.153 66.651 115.695 67.1272 115.755 67.1672C115.772 67.182 115.885 67.0696 116.085 66.8359C116.261 66.5884 116.529 66.2132 116.728 65.6586C117.144 64.5822 117.347 62.7417 116.432 60.7991C115.522 58.862 113.368 57.1548 110.661 56.4949C107.939 55.7905 104.834 56.1684 101.798 56.9156C98.7504 57.6628 95.9152 58.5499 93.2502 58.7573C90.5889 58.9822 88.1674 58.6964 86.2007 58.2279C82.2459 57.2656 80.119 55.7691 80.0565 55.9029Z" fill="#455A64"/>
<path d="M77.231 65.6133C77.1602 65.649 77.3654 66.2645 78.044 67.0441C78.7078 67.817 79.9147 68.7145 81.4842 69.0547C83.0543 69.3932 84.524 69.0744 85.4484 68.6443C86.3887 68.2148 86.8292 67.7386 86.7798 67.6766C86.7206 67.5899 86.1945 67.912 85.2789 68.1994C84.3731 68.4907 83.0357 68.6997 81.6269 68.3964C80.2192 68.0908 79.0874 67.3474 78.3825 66.7083C77.6671 66.0698 77.321 65.559 77.231 65.6133Z" fill="#455A64"/>
<path d="M79.1948 62.5082C79.0346 62.5834 79.5168 63.7261 80.7353 64.5622C81.9477 65.4076 83.1869 65.4558 83.2006 65.2792C83.2379 65.0877 82.1896 64.763 81.1176 64.0092C80.0347 63.2724 79.361 62.4062 79.1948 62.5082Z" fill="#455A64"/>
<path d="M118.71 71.2772C118.793 71.2975 118.971 70.9876 119.017 70.4242C119.067 69.869 118.943 69.0527 118.461 68.311C117.978 67.5698 117.282 67.1255 116.754 66.9461C116.22 66.7606 115.865 66.7974 115.849 66.8819C115.795 67.0635 117.088 67.4233 117.897 68.678C118.716 69.9249 118.522 71.2531 118.71 71.2772Z" fill="#263238"/>
<path d="M121.967 62.2604C121.781 62.1825 121.088 63.8486 119.443 65.2212C117.824 66.624 116.069 67.0414 116.116 67.2373C116.108 67.4123 118.096 67.2675 119.88 65.7336C121.678 64.22 122.141 62.2807 121.967 62.2604Z" fill="#455A64"/>
<path d="M112.434 78.6858C112.364 79.4302 111.675 79.9843 110.897 79.925C110.119 79.8658 109.544 79.2157 109.615 78.4713C109.686 77.7268 110.375 77.1716 111.152 77.2309C111.93 77.2901 112.505 77.9413 112.434 78.6858Z" fill="#263238"/>
<path d="M113.55 78.5612C113.352 78.7214 112.391 77.7959 110.881 77.6028C109.375 77.3883 108.165 78.0203 108.025 77.814C107.956 77.7219 108.176 77.4147 108.704 77.1261C109.225 76.8381 110.08 76.6038 111.02 76.7306C111.96 76.8584 112.706 77.3082 113.115 77.7219C113.532 78.1393 113.646 78.4905 113.55 78.5612Z" fill="#263238"/>
<path d="M98.6922 76.7801C98.622 77.5245 97.933 78.0786 97.1545 78.0193C96.3772 77.9601 95.8028 77.31 95.873 76.565C95.9438 75.8206 96.6322 75.2654 97.4096 75.3246C98.1886 75.3844 98.763 76.0356 98.6922 76.7801Z" fill="#263238"/>
<path d="M99.6752 76.7409C99.4771 76.9011 98.5154 75.9756 97.0057 75.7825C95.4998 75.568 94.2896 76.2005 94.1503 75.9937C94.0806 75.9016 94.2995 75.5943 94.8294 75.3058C95.35 75.0178 96.2048 74.7835 97.1445 74.9102C98.0848 75.0381 98.8303 75.4879 99.239 75.9016C99.656 76.3185 99.7712 76.6701 99.6752 76.7409Z" fill="#263238"/>
<path d="M99.0948 72.5955C98.797 72.861 97.6652 72.0359 96.1363 71.8927C94.6112 71.7111 93.3313 72.28 93.096 71.9575C92.9862 71.8033 93.1898 71.4133 93.7515 71.0408C94.3023 70.6705 95.2371 70.3605 96.2871 70.4724C97.3371 70.5838 98.1858 71.0835 98.6461 71.5614C99.1179 72.0436 99.2347 72.4682 99.0948 72.5955Z" fill="#263238"/>
<path d="M113.452 75.0989C113.518 75.2777 113.258 75.5778 112.708 75.8159C112.164 76.0546 111.325 76.1961 110.422 76.0551C109.519 75.9125 108.764 75.5202 108.32 75.1263C107.869 74.7308 107.714 74.3654 107.832 74.2157C108.094 73.9057 109.217 74.4395 110.645 74.6441C112.065 74.8872 113.298 74.7237 113.452 75.0989Z" fill="#263238"/>
<path d="M102.775 91.3362C102.932 91.346 103.043 91.6297 103.023 91.9709C103.002 92.3121 102.858 92.5804 102.7 92.5711C102.543 92.5617 102.432 92.2776 102.453 91.9363C102.473 91.5951 102.618 91.3268 102.775 91.3362Z" fill="#263238"/>
<path d="M86.5742 124.148C86.5742 124.148 89.6348 119.824 91.5582 117.395C93.8881 114.452 95.2777 111.915 95.2777 110.541C95.2777 109.167 95.2777 103.256 95.2777 103.256C95.2777 103.256 98.1786 102.569 98.5928 105.868C99.0076 109.166 98.5928 109.991 98.5928 109.991C98.5928 109.991 110.774 101.787 111.6 102.382C113.051 103.428 110.299 105.619 110.299 105.619L102.875 112.327L107.102 110.989C108.13 110.664 109.231 111.217 109.577 112.234C109.861 113.069 109.553 113.991 108.822 114.49L106.32 116.658L107.579 116.152C108.511 115.777 109.576 116.177 110.027 117.072C110.389 117.79 110.264 118.656 109.713 119.244L107.433 121.674L108.501 121.106C109.189 120.739 110.046 121.011 110.395 121.707C110.687 122.289 110.529 122.996 110.017 123.401L96.3814 134.182L86.5742 124.148Z" fill="#A36957"/>
<path d="M96.3823 134.179C96.3823 134.179 96.3247 134.129 96.2122 134.019C96.0927 133.9 95.9275 133.736 95.713 133.522C95.2648 133.071 94.6147 132.417 93.7759 131.573C92.0737 129.848 89.6061 127.347 86.5093 124.209L86.4561 124.155L86.4999 124.093C87.392 122.83 88.3619 121.476 89.4141 120.045C89.9407 119.33 90.4871 118.596 91.0615 117.85C91.6419 117.106 92.236 116.353 92.7978 115.539C93.3607 114.729 93.9065 113.876 94.375 112.96C94.8281 112.038 95.2588 111.065 95.1529 109.982C95.1502 107.82 95.148 105.573 95.1452 103.254V103.145L95.2467 103.125C95.9868 102.986 96.7811 103.072 97.4488 103.488C97.7779 103.7 98.0369 104.001 98.2475 104.329C98.4313 104.671 98.5728 105.036 98.6475 105.415C98.7956 106.174 98.8471 106.92 98.8949 107.691C98.9146 108.075 98.9218 108.463 98.9053 108.853C98.8795 109.25 98.8713 109.623 98.7171 110.051L98.5152 109.874C100.396 108.612 102.346 107.336 104.361 106.062C105.368 105.426 106.392 104.791 107.438 104.172C108.489 103.559 109.542 102.931 110.69 102.429C110.842 102.367 110.995 102.306 111.159 102.26C111.242 102.237 111.327 102.216 111.425 102.209C111.472 102.204 111.53 102.208 111.592 102.221C111.68 102.251 111.712 102.289 111.741 102.316C112.039 102.515 112.205 102.928 112.154 103.28C112.05 103.992 111.6 104.511 111.177 104.987C110.735 105.463 110.229 105.853 109.776 106.281C109.31 106.702 108.847 107.12 108.386 107.537C106.541 109.202 104.732 110.835 102.969 112.427L102.834 112.193C103.667 111.929 104.492 111.669 105.309 111.411C105.717 111.282 106.124 111.153 106.528 111.026C106.733 110.963 106.926 110.896 107.139 110.837C107.355 110.774 107.581 110.75 107.805 110.763C108.709 110.791 109.524 111.463 109.741 112.317C109.983 113.167 109.612 114.121 108.896 114.595L108.908 114.585C108.057 115.321 107.222 116.043 106.403 116.75L106.273 116.537C106.685 116.372 107.094 116.209 107.5 116.046C107.924 115.871 108.411 115.837 108.85 115.96C109.74 116.195 110.381 117.065 110.352 117.95C110.347 118.388 110.196 118.818 109.935 119.159C109.659 119.487 109.383 119.754 109.112 120.051C108.568 120.628 108.036 121.193 107.515 121.746L107.383 121.572C107.769 121.369 108.151 121.168 108.529 120.969C108.945 120.773 109.442 120.792 109.837 120.997C110.239 121.197 110.523 121.587 110.613 122.011C110.703 122.437 110.594 122.891 110.332 123.221C110.202 123.392 110.03 123.513 109.882 123.631C109.729 123.751 109.578 123.87 109.427 123.989C109.126 124.226 108.829 124.459 108.536 124.689C107.952 125.148 107.385 125.594 106.836 126.024C104.647 127.74 102.754 129.223 101.2 130.44C99.6596 131.641 98.4565 132.58 97.6293 133.225C97.2277 133.535 96.9177 133.775 96.7 133.943C96.4893 134.104 96.3823 134.179 96.3823 134.179C96.3823 134.179 96.4904 134.083 96.7 133.911C96.9177 133.735 97.2271 133.485 97.6282 133.161C98.45 132.502 99.6454 131.544 101.175 130.318C102.712 129.092 104.584 127.598 106.75 125.87C107.292 125.438 107.852 124.992 108.429 124.533C108.719 124.303 109.012 124.07 109.309 123.833C109.458 123.714 109.608 123.595 109.759 123.475C109.913 123.351 110.063 123.244 110.172 123.099C110.397 122.812 110.489 122.42 110.41 122.054C110.331 121.69 110.086 121.355 109.74 121.186C109.399 121.011 108.974 120.996 108.619 121.166C108.246 121.364 107.868 121.565 107.486 121.768L106.9 122.08L107.354 121.594C107.873 121.039 108.403 120.472 108.944 119.893C109.207 119.603 109.505 119.309 109.748 119.016C109.979 118.714 110.11 118.334 110.114 117.947C110.137 117.166 109.569 116.402 108.784 116.196C108.395 116.09 107.975 116.119 107.593 116.277C107.188 116.44 106.78 116.605 106.368 116.771L105.668 117.054L106.239 116.558C107.056 115.848 107.889 115.125 108.738 114.387L108.744 114.382L108.75 114.378C109.376 113.962 109.698 113.127 109.485 112.385C109.293 111.64 108.582 111.054 107.792 111.031C107.401 110.995 107.023 111.16 106.61 111.284C106.207 111.412 105.8 111.541 105.392 111.67C104.576 111.929 103.75 112.191 102.918 112.455L102.31 112.648L102.783 112.221C104.547 110.625 106.355 108.989 108.201 107.32C108.662 106.904 109.126 106.484 109.591 106.063C110.051 105.63 110.548 105.246 110.968 104.791C111.378 104.341 111.793 103.82 111.87 103.25C111.901 102.973 111.802 102.702 111.561 102.536C111.528 102.453 111.384 102.499 111.237 102.533C111.092 102.573 110.945 102.631 110.8 102.691C109.686 103.177 108.628 103.806 107.584 104.415C106.541 105.033 105.519 105.666 104.512 106.3C102.5 107.571 100.549 108.845 98.6705 110.102L98.3216 110.335L98.4686 109.924C98.5778 109.62 98.6112 109.207 98.6288 108.839C98.6453 108.46 98.6392 108.08 98.62 107.702C98.5756 106.952 98.5207 106.183 98.3819 105.47C98.3123 105.112 98.1806 104.776 98.0149 104.463C97.824 104.168 97.5953 103.899 97.3029 103.71C96.7186 103.339 95.9692 103.255 95.3071 103.379L95.4086 103.251C95.4058 105.57 95.4031 107.817 95.4009 109.979C95.3976 110.252 95.4091 110.511 95.3844 110.798C95.3488 111.074 95.2901 111.343 95.2061 111.599C95.0437 112.115 94.8238 112.599 94.5879 113.065C94.1089 113.995 93.5554 114.853 92.9854 115.667C92.4187 116.483 91.8131 117.245 91.2343 117.981C90.6583 118.722 90.1097 119.453 89.5803 120.165C88.5232 121.589 87.5461 122.939 86.6481 124.195L86.6387 124.079C89.6906 127.231 92.1225 129.743 93.8001 131.476C94.6307 132.34 95.2747 133.008 95.7185 133.47C95.9314 133.694 96.0954 133.866 96.2144 133.991C96.3258 134.112 96.3823 134.179 96.3823 134.179Z" fill="#A36957"/>
<path d="M96.381 134.168L59.002 183.518C53.3284 191.008 43.1026 193.749 34.6076 189.683C28.397 186.71 23.8426 180.468 27.6537 167.618L63.4604 143.118L85.2248 122.113L96.381 134.168Z" fill="#FF5310"/>
<path d="M34.6071 189.691C34.6071 189.691 34.7464 189.756 35.0103 189.896C35.2807 190.039 35.6708 190.246 36.1799 190.515C37.2486 190.958 38.8592 191.621 41.0662 191.825C42.164 191.91 43.3972 191.949 44.7275 191.759C45.3974 191.704 46.0787 191.536 46.7924 191.395C47.1468 191.314 47.5007 191.198 47.8649 191.099C48.2314 191.004 48.5951 190.879 48.961 190.739C50.4357 190.215 51.9629 189.498 53.4535 188.532C54.9484 187.576 56.4181 186.381 57.6672 184.851C60.2187 181.832 62.8553 178.387 65.7047 174.709C68.548 171.026 71.5505 167.061 74.7098 162.891C81.017 154.54 87.9123 145.329 95.1181 135.637C95.5021 135.121 95.885 134.605 96.2663 134.091L96.2762 134.274C92.4519 130.139 88.7187 126.104 85.1222 122.217L85.3136 122.229C77.6936 128.519 70.642 134.523 64.2482 139.871C57.8609 145.226 52.1341 149.926 47.2939 153.757C42.4553 157.591 38.5196 160.574 35.7794 162.577C34.4173 163.589 33.3404 164.338 32.6212 164.857C32.264 165.11 31.9903 165.303 31.7988 165.438C31.6128 165.568 31.5146 165.629 31.5146 165.629C31.5146 165.629 31.6035 165.554 31.784 165.418C31.9722 165.278 32.241 165.078 32.5921 164.816C33.3014 164.283 34.369 163.522 35.7218 162.498C38.4434 160.472 42.3604 157.468 47.1819 153.616C52.0052 149.766 57.7171 145.052 64.0924 139.684C70.4742 134.325 77.5186 128.31 85.1364 122.014L85.2379 121.93L85.3279 122.027C88.9256 125.913 92.6604 129.947 96.4863 134.08L96.5669 134.167L96.4962 134.262C96.1149 134.776 95.732 135.291 95.348 135.808C88.1422 145.501 81.2398 154.707 74.9205 163.05C71.7546 167.217 68.745 171.176 65.8928 174.855C63.0336 178.528 60.3899 181.964 57.8208 184.983C56.5552 186.523 55.062 187.728 53.5522 188.686C52.0452 189.654 50.5031 190.37 49.0153 190.89C48.6461 191.03 48.2791 191.154 47.9094 191.247C47.5418 191.346 47.1852 191.461 46.8275 191.54C46.1072 191.679 45.4204 191.843 44.7445 191.895C43.4032 192.079 42.1607 192.031 41.0558 191.937C38.8351 191.715 37.2211 191.03 36.1563 190.569C35.6417 190.294 35.2577 190.068 34.9966 189.923C34.736 189.773 34.6071 189.691 34.6071 189.691Z" fill="#263238"/>
<path d="M62.9497 176.841C62.9273 176.873 62.5284 176.489 61.643 176.092C60.7663 175.686 59.3499 175.404 57.624 175.585C56.7621 175.669 55.8279 175.864 54.8525 176.163C53.8771 176.459 52.8616 176.875 51.788 177.299C50.7139 177.724 49.5789 178.17 48.3544 178.499C47.1332 178.825 45.8045 179.019 44.4533 178.879C43.1033 178.739 41.8415 178.316 40.6774 177.832C39.5094 177.348 38.4259 176.798 37.3776 176.322C35.2984 175.354 33.2763 174.725 31.5422 174.823C29.8086 174.901 28.4947 175.568 27.7701 176.193C27.0289 176.822 26.8062 177.341 26.7733 177.317C26.7645 177.312 26.8281 177.193 26.9581 176.968C27.1046 176.756 27.3241 176.437 27.6965 176.11C28.4158 175.443 29.7521 174.727 31.5312 174.622C33.3158 174.495 35.3878 175.122 37.4857 176.083C38.5439 176.555 39.6274 177.099 40.7838 177.574C41.9375 178.049 43.174 178.46 44.4824 178.596C45.7897 178.732 47.0806 178.546 48.2825 178.229C49.4872 177.91 50.6162 177.473 51.692 177.055C52.7684 176.638 53.7904 176.228 54.785 175.937C55.7763 175.644 56.727 175.458 57.6053 175.385C59.3636 175.225 60.8108 175.546 61.6891 175.992C62.5772 176.428 62.9497 176.841 62.9497 176.841Z" fill="#FAFAFA"/>
<path d="M76.1579 160.279C76.1168 160.269 76.3795 159.947 76.3005 159.301C76.2177 158.682 75.7113 157.764 74.6509 157.294C74.1281 157.05 73.5087 156.894 72.8351 156.74C72.1641 156.587 71.4246 156.407 70.712 156.059C69.2719 155.39 67.9443 154.234 66.7128 152.926C65.4795 151.613 64.3801 150.304 63.2083 149.297C62.0492 148.28 60.8159 147.596 59.6935 147.29C58.5755 146.97 57.611 146.983 56.9747 147.104C56.3334 147.22 55.9998 147.377 55.9894 147.349C55.9855 147.341 56.0662 147.299 56.2258 147.227C56.3849 147.157 56.6279 147.065 56.9533 146.995C57.5973 146.837 58.5914 146.791 59.7473 147.095C60.9059 147.383 62.1912 148.072 63.3795 149.097C64.582 150.111 65.6957 151.427 66.9201 152.729C68.1418 154.027 69.4365 155.161 70.825 155.821C72.197 156.501 73.6563 156.553 74.7376 157.111C75.8512 157.636 76.3576 158.626 76.4108 159.288C76.4371 159.627 76.3702 159.89 76.2956 160.049C76.2215 160.21 76.1634 160.283 76.1579 160.279Z" fill="#FAFAFA"/>
</svg>
