<svg width="159" height="199" viewBox="0 0 159 199" fill="none" xmlns="http://www.w3.org/2000/svg">
<path d="M36.5507 92.7148C36.5507 92.7148 31.7512 95.3365 29.9152 98.0714C28.0793 100.806 16.6987 136.934 16.6987 136.934C15.6114 134.228 14.9295 130.614 14.4028 126.653L3.53916 126.877C3.53916 126.877 1.88385 138.958 1.88385 141.693C1.88385 144.428 1.76652 169.962 12.1692 171.525C22.5719 173.087 31.1385 157.654 32.7703 152.575C34.4021 147.496 40.5211 133.475 40.5211 133.475L36.5507 92.7148Z" fill="#A36957"/>
<path d="M13.6923 101.014C13.8195 100.222 13.5303 99.4058 12.8838 98.898C12.4278 98.5398 11.792 98.2558 10.9438 98.3117C8.84615 98.4504 4.65042 101.984 2.98676 102.468C1.3231 102.953 -0.196236 104.477 0.020742 106.348C0.23772 108.219 3.05892 119.996 3.05892 119.996V129.973H13.8371L14.3437 126.925C14.3437 126.925 16.2244 124.777 16.8031 123.184C17.3819 121.59 16.8031 116.325 16.8031 116.325L19.1177 115.702C19.1177 115.702 20.6371 114.039 21.071 112.514C21.505 110.99 20.8541 109.743 19.2626 109.882C19.2626 109.882 19.8413 107.319 19.6243 106.626C19.4074 105.933 18.8286 105.032 16.8753 105.379C16.8753 105.379 17.888 102.4 16.5862 101.43C15.2838 100.459 13.6923 101.014 13.6923 101.014Z" fill="#A36957"/>
<path d="M13.6596 111.537C13.6345 111.476 14.8569 110.96 16.4312 110.502C18.005 110.041 19.3206 109.818 19.3349 109.882C19.3511 109.95 18.0688 110.278 16.5058 110.736C14.9418 111.19 13.6861 111.602 13.6596 111.537Z" fill="#894536"/>
<path d="M11.5766 106.702C11.5638 106.67 11.8534 106.533 12.3311 106.332C12.8097 106.135 13.4749 105.863 14.2471 105.645C15.0207 105.428 15.7502 105.344 16.274 105.323C16.7993 105.303 17.1228 105.332 17.1238 105.363C17.1292 105.447 15.8288 105.458 14.3183 105.88C13.5642 106.093 12.8917 106.337 12.3964 106.494C11.902 106.653 11.5893 106.734 11.5766 106.702Z" fill="#894536"/>
<path d="M2.08668 107.516C2.0744 107.517 2.03709 107.317 2.10533 106.962C2.17258 106.609 2.36944 106.104 2.79652 105.602C3.21967 105.095 3.86815 104.626 4.63003 104.211C5.39142 103.796 6.24607 103.373 7.16602 102.974C9.00837 102.179 10.756 101.644 12.0367 101.333C12.6769 101.174 13.2011 101.072 13.5644 101.008C13.9287 100.947 14.1314 100.922 14.1348 100.939C14.1383 100.955 13.9424 101.012 13.586 101.1C13.2306 101.193 12.7152 101.321 12.0843 101.499C10.8222 101.85 9.09869 102.407 7.27107 103.197C5.47045 104.014 3.77979 104.762 2.93446 105.712C2.50885 106.178 2.2958 106.649 2.20154 106.982C2.10729 107.319 2.10926 107.516 2.08668 107.516Z" fill="#894536"/>
<path d="M6.96436 112.5C6.95013 112.522 6.64233 112.347 6.34043 111.892C6.04098 111.449 5.7862 110.684 5.98845 109.865C6.19709 109.047 6.78715 108.476 7.2643 108.212C7.74931 107.937 8.1062 107.917 8.10865 107.941C8.12142 107.982 7.79153 108.063 7.36347 108.357C6.93982 108.641 6.42487 109.184 6.23734 109.922C6.05424 110.661 6.25501 111.368 6.49801 111.806C6.73953 112.254 6.9948 112.47 6.96436 112.5Z" fill="#894536"/>
<path d="M11.7083 116.358C11.6906 116.379 11.4343 116.214 11.1781 115.814C10.9228 115.423 10.6985 114.769 10.8202 114.049C10.9449 113.33 11.3759 112.778 11.748 112.486C12.124 112.186 12.4215 112.108 12.4314 112.133C12.451 112.169 12.1908 112.301 11.8707 112.613C11.5517 112.919 11.185 113.439 11.0725 114.089C10.9626 114.739 11.1368 115.343 11.3371 115.731C11.5364 116.126 11.7387 116.331 11.7083 116.358Z" fill="#894536"/>
<path d="M14.7327 127C14.7415 127 14.7557 127.124 14.7739 127.361C14.7965 127.597 14.8068 127.946 14.8519 128.394C14.9349 129.29 15.0935 130.583 15.4189 132.16C16.0605 135.311 17.4395 139.586 19.6927 143.993C20.8458 146.181 21.9896 148.267 22.7952 150.259C23.6292 152.241 24.1447 154.118 24.3749 155.721C24.6115 157.326 24.5335 158.65 24.3926 159.541C24.3474 159.992 24.2409 160.33 24.1933 160.563C24.1378 160.795 24.1049 160.915 24.0966 160.913C24.0877 160.911 24.1044 160.787 24.1432 160.553C24.1741 160.317 24.2645 159.978 24.2939 159.529C24.4034 158.64 24.4525 157.331 24.1957 155.745C23.9449 154.16 23.4172 152.307 22.5763 150.342C21.7623 148.364 20.6225 146.299 19.4625 144.1C17.1989 139.672 15.8396 135.366 15.2407 132.191C14.9369 130.603 14.8048 129.3 14.7523 128.4C14.7223 127.95 14.7282 127.599 14.7219 127.362C14.7209 127.125 14.7238 127 14.7327 127Z" fill="#894536"/>
<path d="M36.5449 92.6962L59.5583 85.0961L87.3919 84.8281C87.8803 84.8281 118.124 94.7241 120.077 95.8158C122.031 96.9075 113.173 131.077 113.173 131.077L117.309 178.782C117.309 178.782 124.299 194.184 118.461 198.735H113.012L42.7789 198.657C42.6399 188.614 45.8264 162.096 45.8264 162.096L39.1501 133.089L36.5449 92.6962Z" fill="#FF5310"/>
<path d="M106.894 125.406C106.894 125.41 106.834 125.415 106.716 125.421C106.586 125.425 106.413 125.431 106.195 125.438C105.721 125.449 105.049 125.464 104.19 125.483C102.434 125.51 99.9187 125.55 96.8172 125.6C90.5789 125.675 81.9852 125.779 72.4931 125.893C62.9972 125.98 54.4025 126.058 48.1641 126.116C45.0621 126.132 42.5472 126.146 40.7908 126.155C39.9322 126.154 39.2597 126.153 38.786 126.153C38.5675 126.15 38.3952 126.148 38.2646 126.146C38.1473 126.144 38.0869 126.14 38.0869 126.136C38.0869 126.131 38.1468 126.127 38.2641 126.121C38.3947 126.117 38.567 126.111 38.785 126.103C39.2587 126.093 39.9307 126.078 40.7888 126.059C42.5448 126.031 45.0597 125.991 48.1612 125.942C54.4 125.867 62.9947 125.763 72.4907 125.648C81.9837 125.562 90.5779 125.483 96.8167 125.426C99.9183 125.41 102.434 125.396 104.19 125.387C105.049 125.388 105.721 125.388 106.195 125.389C106.413 125.391 106.586 125.393 106.716 125.395C106.834 125.398 106.894 125.402 106.894 125.406Z" fill="white"/>
<g opacity="0.3">
<path d="M60.6982 133.115C62.2131 132.02 64.3137 132.132 66.1825 132.446C74.871 133.905 82.5644 138.539 90.0054 143.076C98.8981 148.499 106.599 151.59 115.492 157.012L115.921 163.253C108.485 164.785 100.607 163.307 94.2522 159.305C91.4727 157.554 88.8871 155.288 85.6344 154.621C82.9585 154.072 80.1889 154.689 77.4526 154.726C72.8946 154.788 68.3346 153.16 64.9312 150.256C61.5278 147.351 59.3153 143.199 58.8553 138.856C58.6354 136.771 58.9521 134.377 60.6982 133.115Z" fill="black"/>
</g>
<path d="M108.304 136.838C108.325 136.773 113.506 138.32 119.874 140.291C126.244 142.262 131.389 143.912 131.367 143.976C131.346 144.041 126.166 142.495 119.796 140.524C113.428 138.552 108.282 136.902 108.304 136.838Z" fill="#894536"/>
<path d="M46.5908 161.79C46.5933 161.782 46.7322 161.811 46.9953 161.872C47.2796 161.941 47.6615 162.034 48.1411 162.151C49.1592 162.405 50.5907 162.761 52.3496 163.198C55.9047 164.075 60.8269 165.244 66.2916 166.42C71.7588 167.593 76.7311 168.55 80.3368 169.212C82.1222 169.536 83.5753 169.799 84.6086 169.987C85.0946 170.078 85.4814 170.15 85.7691 170.203C86.0342 170.255 86.1726 170.286 86.1711 170.295C86.1697 170.303 86.0283 170.288 85.7608 170.252C85.4706 170.209 85.0813 170.152 84.5914 170.081C83.5767 169.929 82.1114 169.691 80.3039 169.382C76.6884 168.764 71.7063 167.833 66.2357 166.659C60.7675 165.483 55.8482 164.286 52.3034 163.366C50.5308 162.906 49.0998 162.521 48.1146 162.244C47.6399 162.108 47.2624 162 46.9811 161.92C46.7234 161.843 46.5889 161.798 46.5908 161.79Z" fill="#FF725E"/>
<path d="M38.37 92.1094C38.37 92.1094 31.2019 93.636 28.2693 100.36C25.1373 107.542 16.6953 130.67 16.6953 130.67L39.1972 143.937L41.3866 133.238L38.37 92.1094Z" fill="#FF5310"/>
<path d="M33.6165 109.418C33.6853 109.403 36.476 121.191 39.848 135.743C43.2215 150.3 45.8998 162.109 45.8306 162.124C45.7619 162.139 42.9721 150.354 39.5982 135.796C36.2262 121.244 33.5473 109.433 33.6165 109.418Z" fill="#263238"/>
<path d="M53.4748 169.442C53.4772 169.438 53.5165 169.461 53.5901 169.507C53.6751 169.562 53.7816 169.631 53.9132 169.717C54.2097 169.918 54.6201 170.194 55.1409 170.545C55.6696 170.91 56.32 171.352 57.0912 171.842C57.86 172.336 58.7215 172.918 59.7097 173.51C60.6881 174.116 61.7612 174.777 62.9393 175.446C64.1023 176.14 65.3796 176.824 66.7158 177.557C69.4104 178.985 72.4206 180.473 75.6502 181.894C78.8882 183.3 82.0354 184.503 84.9277 185.517C86.3818 186.004 87.7588 186.479 89.068 186.866C90.3679 187.28 91.5927 187.624 92.7115 187.934C93.8258 188.261 94.8493 188.502 95.7423 188.736C96.6347 188.972 97.4089 189.153 98.0431 189.297C98.6612 189.444 99.1481 189.559 99.5001 189.643C99.6543 189.682 99.7785 189.713 99.8776 189.739C99.9625 189.762 100.005 189.775 100.004 189.779C100.003 189.784 99.9586 189.778 99.8717 189.763C99.7711 189.744 99.6449 189.72 99.4883 189.691C99.1334 189.618 98.6425 189.517 98.0196 189.39C97.3814 189.26 96.6023 189.093 95.7059 188.868C94.8086 188.648 93.7801 188.417 92.6609 188.101C91.5372 187.801 90.3075 187.466 89.0022 187.06C87.6881 186.681 86.3057 186.211 84.8467 185.729C81.9441 184.726 78.7876 183.526 75.5427 182.117C72.3062 180.693 69.2926 179.196 66.599 177.754C65.2633 177.014 63.9874 176.323 62.8274 175.62C61.6517 174.942 60.5825 174.272 59.6091 173.655C58.6263 173.053 57.7707 172.46 57.0083 171.955C56.244 171.454 55.6009 171 55.081 170.623C54.5719 170.256 54.1709 169.966 53.8812 169.757C53.7556 169.663 53.654 169.587 53.573 169.527C53.5057 169.474 53.4718 169.445 53.4748 169.442Z" fill="#263238"/>
<path d="M101.502 113.344C101.567 113.316 104.002 118.293 106.942 124.459C109.883 130.627 112.215 135.649 112.15 135.676C112.086 135.705 109.651 130.729 106.71 124.56C103.77 118.394 101.438 113.372 101.502 113.344Z" fill="#263238"/>
<g opacity="0.3">
<path d="M40.6834 138.618C36.5981 136.714 34.0528 132.506 33.3759 128.204C32.6989 123.902 33.6586 119.506 35.0955 115.379L40.6834 138.618Z" fill="black"/>
</g>
<g opacity="0.3">
<path d="M99.06 189.594C91.1158 190.581 82.8976 189.457 75.5591 186.38C68.2207 183.304 61.7835 178.283 57.1514 172.023C70.4037 179.933 83.8583 186.803 99.06 189.594Z" fill="black"/>
</g>
<path d="M84.1138 129.534L117.117 139.589C117.117 139.589 110.029 126.006 107.127 118.914C105.175 114.144 107.37 98.5594 117.421 97.4141C117.421 97.4141 119.335 97.7954 122.142 101.507C124.948 105.219 140.539 131.261 140.539 131.261C140.539 131.261 147.233 142.972 149.546 147.758C152.998 154.903 148.249 166.056 134.827 168.326C124.278 170.111 82.7363 146.685 82.7363 146.685L84.1138 129.534Z" fill="#A36957"/>
<path d="M139.5 123.46L115.397 138.652L104.292 116.988L107.226 101.942L115.552 94.8998C119.815 94.1024 123.662 98.4763 125.805 102.095L139.5 123.46Z" fill="#FF5310"/>
<path d="M100.871 110.914C100.862 110.914 100.857 110.822 100.854 110.647C100.857 110.473 100.84 110.213 100.868 109.882C100.898 109.218 101.018 108.256 101.328 107.101C101.634 105.946 102.167 104.606 103.002 103.244C103.833 101.882 104.989 100.513 106.452 99.3414C107.928 98.1848 109.55 97.3536 111.103 96.8275C112.658 96.2981 114.132 96.0484 115.373 95.977C116.616 95.9027 117.625 95.9699 118.311 96.0668C118.657 96.102 118.919 96.1674 119.099 96.197C119.278 96.2323 119.371 96.2548 119.369 96.2628C119.365 96.2845 118.986 96.2262 118.3 96.1613C117.614 96.0941 116.613 96.0541 115.387 96.1495C114.161 96.2422 112.71 96.5064 111.183 97.0395C109.656 97.5694 108.065 98.3936 106.615 99.53C105.177 100.681 104.034 102.023 103.204 103.359C102.37 104.696 101.827 106.011 101.502 107.147C101.174 108.282 101.027 109.232 100.967 109.889C100.906 110.547 100.894 110.914 100.871 110.914Z" fill="#263238"/>
<path d="M77.888 124.544V111.006C77.888 109.799 76.8664 108.82 75.6063 108.82H59.9751C58.7149 108.82 57.6934 109.799 57.6934 111.006V139.543C57.6934 140.75 58.7149 141.729 59.9751 141.729H75.6063C76.8664 141.729 77.888 140.75 77.888 139.543V124.544Z" fill="#263238"/>
<path d="M92.625 133.936C92.625 133.936 88.5073 131.812 87.6625 130.902C86.8176 129.992 81.7496 123.722 80.5881 122.711C79.4266 121.7 77.843 120.992 77.843 120.992V125.543C77.843 125.543 77.3217 126.048 75.682 126.352C74.042 126.655 59.2605 123.824 58.2045 123.723C57.1486 123.622 55.9871 123.622 55.9871 124.835C55.9871 126.049 57.2541 127.566 57.7819 127.97C58.3096 128.375 60.3159 128.881 60.3159 128.881C60.3159 128.881 55.7446 128.51 55.2169 129.116C54.6892 129.723 54.3716 131.153 55.1001 131.484C55.7108 131.762 59.0204 133.03 59.0204 133.03C59.0204 133.03 67.6013 136.263 67.7069 136.667C67.8124 137.072 62.5333 136.87 61.8995 136.667C61.2658 136.465 58.9433 134.948 58.204 134.847C57.4647 134.746 56.0922 135.415 56.7259 136.901C57.3597 138.387 59.0489 140.207 59.0489 140.207C59.0489 140.207 57.7819 140.409 57.6763 141.521C57.5708 142.634 57.8874 142.836 58.4156 143.443C58.9433 144.05 60.9496 144.656 61.9 144.656C62.8504 144.656 76.7876 147.69 77.8435 147.69C78.8994 147.69 82.9115 146.678 84.3896 146.577C85.8677 146.476 87.9796 146.577 87.9796 146.577L92.625 133.936Z" fill="#A36957"/>
<path d="M57.1357 128.775C57.1343 128.758 57.4018 128.733 57.8903 128.703C58.1347 128.678 58.4332 128.688 58.7803 128.701C58.956 128.708 59.1416 128.714 59.3365 128.721C59.5338 128.742 59.7405 128.763 59.956 128.786C61.6996 128.954 64.0452 129.526 66.591 130.245C69.1378 130.966 71.446 131.601 73.1573 131.875C73.3693 131.912 73.5721 131.946 73.766 131.979C73.9574 132.001 74.14 132.023 74.3128 132.042C74.6545 132.084 74.949 132.121 75.1911 132.125C75.6751 132.151 75.9441 132.173 75.9446 132.19C75.9451 132.207 75.6761 132.217 75.1871 132.221C74.9422 132.231 74.6442 132.207 74.2986 132.179C74.1233 132.165 73.9388 132.15 73.7444 132.134C73.548 132.106 73.3428 132.077 73.1283 132.047C71.3949 131.813 69.0651 131.2 66.5198 130.48C63.975 129.761 61.654 129.168 59.9339 128.957C59.7208 128.929 59.5166 128.902 59.3217 128.876C59.1293 128.862 58.9462 128.85 58.7729 128.837C58.4298 128.812 58.1342 128.787 57.8917 128.797C57.4072 128.799 57.1372 128.791 57.1357 128.775Z" fill="#894536"/>
<path d="M70.8613 136.703C70.9031 136.633 72.0297 137.535 73.7478 137.805C75.4615 138.104 76.8385 137.618 76.8537 137.697C76.864 137.723 76.541 137.881 75.9721 138.005C75.4056 138.13 74.5868 138.192 73.7041 138.046C72.8225 137.898 72.0729 137.577 71.5834 137.277C71.0916 136.977 70.8427 136.723 70.8613 136.703Z" fill="#894536"/>
<path d="M58.796 139.952C58.8024 139.936 59.012 139.995 59.3846 140.115C59.7567 140.237 60.2967 140.408 60.9663 140.61C62.305 141.015 64.1753 141.513 66.2774 141.901C68.3809 142.287 70.3106 142.49 71.7106 142.589C72.4107 142.64 72.9786 142.673 73.3709 142.692C73.7636 142.713 73.9811 142.733 73.9806 142.749C73.9806 142.766 73.7626 142.779 73.3684 142.787C72.9742 142.797 72.4038 142.79 71.6994 142.762C70.2905 142.707 68.345 142.53 66.2288 142.142C64.1135 141.751 62.2387 141.223 60.9089 140.774C60.2437 140.55 59.7111 140.354 59.3493 140.204C58.987 140.056 58.7897 139.968 58.796 139.952Z" fill="#894536"/>
<path d="M66.0381 113.405C66.0381 114.028 66.5653 114.533 67.2158 114.533C67.8662 114.533 68.3934 114.028 68.3934 113.405C68.3934 112.782 67.8662 112.277 67.2158 112.277C66.5653 112.277 66.0381 112.782 66.0381 113.405Z" fill="white"/>
<path d="M91.2102 51.1797C92.734 54.9537 93.6495 55.8766 95.6646 59.8283C97.4363 63.3014 95.8482 68.0142 92.8906 70.6189C90.9613 72.3176 88.3267 73.0041 85.7867 73.5668C80.1114 74.8245 74.2128 75.7437 68.4874 74.722C63.113 73.7629 58.0852 71.0609 54.3966 67.1496C50.708 63.2384 48.3797 58.1404 47.8721 52.8624" fill="#455A64"/>
<g opacity="0.3">
<path d="M91.2083 51.1797C92.732 54.9537 93.6475 55.8766 95.6627 59.8283C97.4343 63.3014 95.8463 68.0142 92.8886 70.6189C90.9594 72.3176 88.3247 73.0041 85.7848 73.5668C80.1095 74.8245 74.2108 75.7437 68.4855 74.722C63.1111 73.7629 58.0833 71.0609 54.3947 67.1496C50.706 63.2384 48.3777 58.1404 47.8701 52.8624" fill="black"/>
</g>
<path d="M87.2139 63.9137C88.7622 59.5346 90.2928 55.1217 91.0311 50.5527C91.7699 45.9837 91.686 41.2106 90.0596 36.8574C89.8132 36.1973 87.6959 31.7646 86.967 31.8248C86.4456 31.8681 87.7323 35.9951 87.4633 36.4249C84.8983 40.5265 84.1521 45.4872 84.4923 50.257C84.8325 55.0263 85.8124 59.325 87.2139 63.9137Z" fill="#263238"/>
<path d="M73.6943 102.404C81.1791 102.341 87.2392 96.5611 87.3359 89.393L87.9172 46.2549C88.4586 34.6706 81.8712 24.7131 69.7651 24.5156L68.6454 24.5598C57.3758 25.006 48.3491 33.6621 47.9078 44.4561C47.4969 54.4991 47.1769 65.601 47.4778 70.9684C48.1007 82.0797 59.7851 83.3491 59.7851 83.3491C59.8112 83.3491 59.817 85.9275 59.8107 89.1932C59.7964 96.5286 66.0353 102.468 73.6943 102.404Z" fill="#A36957"/>
<path d="M59.7839 83.3687C59.7839 83.3687 67.1179 83.4904 74.7126 78.4922C74.7126 78.4922 71.3765 86.7217 59.751 86.1788L59.7839 83.3687Z" fill="#894536"/>
<path d="M52.7881 53.547C52.793 54.3866 53.5397 55.0743 54.4557 55.0855C55.3698 55.0959 56.1081 54.4265 56.1027 53.5865C56.0978 52.747 55.3511 52.0583 54.437 52.047C53.5215 52.0357 52.7827 52.7075 52.7881 53.547Z" fill="#263238"/>
<path d="M50.5942 48.8949C50.8087 49.0937 52.0262 48.1541 53.8101 48.0878C55.5911 47.997 56.9381 48.8244 57.1222 48.6072C57.213 48.5108 56.9877 48.1456 56.4006 47.7705C55.8223 47.3972 54.8488 47.0499 53.7379 47.0983C52.627 47.1486 51.7095 47.5768 51.1897 47.9989C50.6585 48.4243 50.4887 48.806 50.5942 48.8949Z" fill="#263238"/>
<path d="M69.5791 53.4723C69.584 54.3119 70.3312 54.9996 71.2467 55.0104C72.1603 55.0217 72.8991 54.3513 72.8937 53.5118C72.8883 52.6727 72.1416 51.9836 71.2276 51.9728C70.3116 51.9615 69.5737 52.6328 69.5791 53.4723Z" fill="#263238"/>
<path d="M68.1006 48.4494C68.3156 48.5952 69.5335 47.9093 71.3165 47.8628C73.0969 47.7984 74.445 48.4043 74.6295 48.2459C74.7203 48.1754 74.4965 47.9084 73.9069 47.6339C73.3286 47.3598 72.3547 47.1055 71.2438 47.1398C70.1329 47.1756 69.2159 47.4882 68.696 47.7961C68.1663 48.1054 67.996 48.3846 68.1006 48.4494Z" fill="#263238"/>
<path d="M62.2514 62.3567C62.2554 62.2593 61.1391 62.1197 59.333 61.9707C58.8755 61.9439 58.4406 61.8743 58.3512 61.5795C58.2305 61.2687 58.4008 60.791 58.5996 60.2743C58.9825 59.2019 59.3831 58.0777 59.8033 56.8995C61.4699 52.0959 62.6564 48.1536 62.4542 48.0906C62.2514 48.0281 60.736 51.8707 59.0694 56.6743C58.6693 57.8586 58.2869 58.987 57.9232 60.067C57.7725 60.5696 57.5 61.1437 57.7607 61.7882C57.8972 62.1094 58.2418 62.3327 58.5368 62.3966C58.8328 62.4704 59.0891 62.4653 59.3149 62.469C61.1268 62.4907 62.2485 62.454 62.2514 62.3567Z" fill="#263238"/>
<path d="M67.8499 39.9335C68.0458 40.3909 69.8175 40.1004 71.9205 40.2593C74.0269 40.3777 75.7402 40.8972 75.9999 40.4703C76.1152 40.2659 75.802 39.8409 75.1 39.4183C74.4044 38.9962 73.3068 38.6121 72.0447 38.528C70.7826 38.4462 69.6407 38.6827 68.8911 39.0098C68.1356 39.3361 67.7645 39.7163 67.8499 39.9335Z" fill="#263238"/>
<path d="M51.0791 40.447C51.4095 40.8225 52.621 40.3713 54.0981 40.2937C55.5718 40.1668 56.8383 40.4465 57.1083 40.0291C57.2261 39.8274 57.0126 39.4462 56.45 39.1007C55.8958 38.7561 54.9812 38.4924 53.9675 38.562C52.9533 38.633 52.0889 39.0194 51.5921 39.4372C51.0869 39.857 50.9328 40.2632 51.0791 40.447Z" fill="#263238"/>
<path d="M87.3232 54.5402C87.5176 54.4504 95.2012 51.9651 95.2758 59.5756C95.3499 67.1861 87.3571 65.6877 87.3414 65.4695C87.3257 65.2519 87.3232 54.5402 87.3232 54.5402Z" fill="#A36957"/>
<path d="M89.7435 62.5181C89.7784 62.4932 89.8829 62.6093 90.1181 62.7099C90.3468 62.8076 90.7401 62.8734 91.1529 62.7211C91.9894 62.4184 92.6835 61.1361 92.7091 59.7644C92.7223 59.072 92.5642 58.4139 92.3031 57.87C92.0547 57.3153 91.6752 56.9299 91.2521 56.8617C90.8304 56.7724 90.5339 57.0173 90.4386 57.2326C90.3341 57.446 90.3861 57.5979 90.3439 57.611C90.3218 57.6303 90.1721 57.485 90.233 57.1701C90.2644 57.0187 90.3557 56.8382 90.5412 56.6906C90.7302 56.5402 91.0101 56.4622 91.3046 56.4899C91.9177 56.5247 92.4749 57.0596 92.7621 57.6566C93.0831 58.256 93.2775 58.9954 93.2628 59.7733C93.227 61.3072 92.4214 62.7493 91.2756 63.0774C90.718 63.2222 90.2501 63.0648 90.0076 62.8875C89.7597 62.7014 89.716 62.5322 89.7435 62.5181Z" fill="#894536"/>
<path d="M53.0394 31.8689C51.7527 31.1899 55.6102 27.1992 58.7696 25.824C63.5451 23.7459 70.8384 22.4642 75.2433 23.658C80.5465 25.0953 84.9533 27.6196 87.6179 32.2408C90.2825 36.8615 91.2864 42.2462 91.1347 47.5233C91.0886 49.1331 90.9148 50.8116 90.0179 52.1732C88.909 53.8564 86.7799 54.9175 86.8747 57.2382C86.909 58.0864 86.6572 58.943 86.0505 59.5622C84.5974 61.0446 82.8179 59.6534 81.9995 58.2585C80.2509 55.2786 80.0546 51.7195 79.899 48.3047C79.7885 45.8773 79.684 43.3981 80.3972 41.0666C80.7851 39.7981 81.409 38.5987 81.7232 37.3114C82.0373 36.0241 81.9956 34.5633 81.1576 33.5121C81.0217 33.3414 80.7968 33.1256 80.5121 32.8872C78.2608 30.9991 75.1098 30.4353 72.2895 31.3926C67.8155 32.9112 60.1751 35.1793 58.1786 33.726C55.3059 31.6352 54.6186 30.2708 54.6186 30.2708L53.0394 31.8689Z" fill="#263238"/>
<path d="M47.8706 43.422C47.8706 43.422 49.2009 39.6034 50.5195 37.5657C51.838 35.528 56.1339 33.8096 57.0691 33.496C58.0042 33.1824 68.6936 33.2548 76.2824 34.7485C83.8712 36.2427 90.8876 51.3762 90.8876 51.3762L91.7428 47.1814C91.7428 47.1814 90.9731 39.0787 90.9726 37.2493C90.9721 35.4199 87.7498 29.3751 86.903 28.4456C86.0562 27.516 77.892 23.1116 77.0094 22.679C76.1273 22.247 68.9547 20.4053 65.5174 21.0556C62.0802 21.7058 53.324 25.6316 51.3913 27.1296C49.4591 28.6275 48.9044 29.0911 47.8632 30.8965C46.822 32.7029 47.8706 43.422 47.8706 43.422ZM56.2424 30.6045L56.3455 29.1546C56.4142 28.1879 60.6345 23.0246 66.7565 23.9094C72.879 24.7943 74.7125 31.8086 74.7125 31.8086L56.2424 30.6045Z" fill="#455A64"/>
<path d="M56.4098 33.5216C56.4255 33.4821 56.2198 33.4083 56.0337 33.1606C55.8413 32.9185 55.7181 32.4954 55.8531 32.0414C55.9783 31.5873 56.264 31.23 56.4682 30.9738C56.6773 30.7181 56.8094 30.5541 56.7809 30.5268C56.7549 30.5019 56.5757 30.6166 56.3214 30.8474C56.0755 31.0777 55.7304 31.4462 55.5831 31.9737C55.4211 32.5001 55.6116 33.0388 55.8835 33.2828C56.1516 33.5432 56.4078 33.5517 56.4098 33.5216Z" fill="#263238"/>
<path d="M58.8016 31.6534C58.7746 31.6839 58.8934 31.793 58.8664 31.9993C58.8542 32.0976 58.8021 32.2151 58.7064 32.2753C58.6156 32.3378 58.4727 32.3321 58.3481 32.256C58.2248 32.1775 58.162 32.0543 58.1851 31.9495C58.2037 31.8414 58.2955 31.7488 58.3844 31.698C58.5709 31.5913 58.7231 31.651 58.7413 31.6153C58.7717 31.596 58.6072 31.4305 58.3044 31.525C58.1664 31.572 57.998 31.683 57.9347 31.8926C57.8665 32.106 57.9921 32.3585 58.1954 32.4797C58.3932 32.609 58.6848 32.6175 58.861 32.4718C59.0363 32.3317 59.0741 32.1394 59.0638 31.9993C59.0324 31.6961 58.8075 31.619 58.8016 31.6534Z" fill="#263238"/>
<path d="M62.3055 31.8331C62.2785 31.8636 62.3973 31.9727 62.3703 32.179C62.3581 32.2773 62.306 32.3948 62.2103 32.455C62.1195 32.5175 61.9766 32.5118 61.852 32.4357C61.7287 32.3572 61.6659 32.234 61.689 32.1292C61.7076 32.0211 61.7994 31.928 61.8883 31.8777C62.0748 31.771 62.227 31.8307 62.2452 31.795C62.2756 31.7757 62.1111 31.6102 61.8083 31.7047C61.6703 31.7517 61.5015 31.8627 61.4386 32.0728C61.3704 32.2862 61.4961 32.5386 61.6993 32.6599C61.8971 32.7892 62.1887 32.7976 62.3649 32.6519C62.5402 32.5118 62.578 32.3196 62.5677 32.1795C62.5363 31.8758 62.3114 31.7987 62.3055 31.8331Z" fill="#263238"/>
<path d="M65.8085 32.0635C65.7815 32.0941 65.9003 32.2031 65.8733 32.4095C65.861 32.5077 65.809 32.6253 65.7132 32.6854C65.6224 32.7479 65.4796 32.7423 65.3549 32.6661C65.2317 32.5876 65.1688 32.4645 65.1919 32.3597C65.2106 32.2515 65.3024 32.1585 65.3912 32.1082C65.5778 32.0015 65.7299 32.0612 65.7481 32.0254C65.7785 32.0062 65.6141 31.8407 65.3112 31.9352C65.1733 31.9822 65.0049 32.0931 64.9416 32.3028C64.8733 32.5162 64.999 32.7686 65.2022 32.8899C65.4001 33.0192 65.6916 33.0276 65.8684 32.8819C66.0431 32.7418 66.0814 32.5496 66.0706 32.4095C66.0392 32.1063 65.8144 32.0292 65.8085 32.0635Z" fill="#263238"/>
<path d="M69.3104 32.2432C69.2834 32.2738 69.4022 32.3828 69.3752 32.5892C69.3625 32.6874 69.3109 32.8049 69.2152 32.8651C69.1244 32.9276 68.9815 32.922 68.8568 32.8458C68.7336 32.7673 68.6708 32.6442 68.6939 32.5393C68.7125 32.4312 68.8043 32.3386 68.8932 32.2879C69.0797 32.1812 69.2319 32.2409 69.2501 32.2051C69.2805 32.1859 69.116 32.0204 68.8132 32.1149C68.6752 32.1619 68.5068 32.2728 68.4435 32.4829C68.3753 32.6964 68.5009 32.9488 68.7042 33.0696C68.902 33.1989 69.1936 33.2073 69.3698 33.0616C69.5451 32.9215 69.5829 32.7293 69.5726 32.5892C69.5407 32.286 69.3163 32.2089 69.3104 32.2432Z" fill="#263238"/>
<path d="M72.8143 32.4614C72.7873 32.492 72.9061 32.601 72.8791 32.8079C72.8669 32.9061 72.8148 33.0236 72.7191 33.0838C72.6283 33.1463 72.4854 33.1407 72.3607 33.0645C72.2375 32.986 72.1747 32.8629 72.1978 32.758C72.2169 32.6499 72.3082 32.5573 72.3971 32.5066C72.5836 32.3999 72.7358 32.4596 72.754 32.4238C72.7844 32.405 72.6199 32.2391 72.3171 32.3336C72.1791 32.3806 72.0102 32.4915 71.9474 32.7016C71.8792 32.9151 72.0048 33.1675 72.2081 33.2883C72.4059 33.4176 72.6975 33.426 72.8737 33.2803C73.0485 33.1402 73.0868 32.948 73.0765 32.8079C73.0451 32.5042 72.8202 32.4271 72.8143 32.4614Z" fill="#263238"/>
<path d="M66.5156 24.2819C65.8676 24.2542 65.5603 23.386 64.9119 23.3883C64.2634 23.3907 63.6291 23.7498 63.315 24.2927C63.0823 23.7174 62.4313 23.3244 61.7888 23.3709C61.1462 23.4179 60.5649 23.9007 60.426 24.5033C59.9287 24.3468 59.3784 24.1912 58.8954 24.3853C58.4123 24.5795 58.1698 25.301 58.6028 25.5835C57.9651 25.2315 57.1262 25.1031 56.5057 25.4829C55.8852 25.8628 55.7134 26.8565 56.3113 27.2683C55.6068 26.9571 54.6894 27.1813 54.2269 27.7773C53.7645 28.3734 53.8052 29.2792 54.3197 29.8353C54.4395 29.965 54.5946 30.0812 54.7753 30.0915C55.1042 30.1103 55.3383 29.7765 55.3987 29.4668C55.4591 29.157 55.4232 28.8251 55.5568 28.537C55.6903 28.2488 56.11 28.0458 56.3496 28.2625C56.0261 28.7885 55.7124 29.4926 56.1228 29.9599C56.406 30.2823 56.6957 30.6626 57.1355 30.6716C59.6347 30.7233 72.2145 31.7654 74.7137 31.8171C74.7127 31.8181 72.5203 24.5362 66.5156 24.2819Z" fill="#263238"/>
<path d="M90.1984 50.0646C90.2745 50.7049 90.9785 51.0999 91.6363 51.2357C92.2941 51.3711 93.001 51.3589 93.5954 51.6603C94.1904 51.9617 94.5885 52.7675 94.1497 53.256C93.7869 53.6604 93.1178 53.5908 92.5871 53.4295C90.1925 52.7031 88.2427 50.7585 87.5809 48.4378C86.7071 48.995 85.4504 48.5445 84.8221 47.7387C84.1942 46.9333 84.0327 45.8895 83.8904 44.8937C81.1605 45.0202 78.5896 42.6393 78.6304 40.0219C78.6529 38.5738 79.3471 37.0769 78.8002 35.7266C78.8002 35.7266 82.4216 38.2725 84.2016 40.6261C85.9826 42.9802 90.1984 50.0646 90.1984 50.0646Z" fill="#263238"/>
<path d="M93.2972 53.24C93.6291 53.2038 93.9202 53.5362 93.8961 53.8554C93.872 54.1746 93.604 54.4417 93.2933 54.5592C92.9825 54.6768 92.636 54.6697 92.3041 54.634C91.3041 54.5254 90.3356 54.1634 89.5236 53.5949C89.1731 54.2278 88.3288 54.5245 87.5983 54.3707C86.8679 54.217 86.268 53.6791 85.9322 53.0392C85.5965 52.3993 85.4988 51.6663 85.5086 50.9503C84.8444 51.4139 83.8704 51.3297 83.2023 50.8713C82.5342 50.4124 82.1494 49.6465 82.0183 48.8694C81.8872 48.0922 81.9839 47.2967 82.1184 46.5204C81.5181 47.0724 80.4081 46.7038 80.0586 45.9807C79.7091 45.2576 79.9516 44.3859 80.3934 43.7108C79.3139 43.3704 78.7464 42.0064 79.2864 41.0483C78.7994 41.3999 78.0376 41.1258 77.7308 40.6213C77.424 40.1169 77.4686 39.484 77.6154 38.917C77.7627 38.3505 78.0027 37.8023 78.0616 37.2207C78.1421 36.4289 77.8623 35.6094 77.3096 35.0156C78.7945 35.2733 80.1175 36.1069 81.1779 37.1356C82.2382 38.1643 83.0664 39.3872 83.8866 40.6007C86.1202 43.9045 88.3538 47.2078 90.5874 50.5116" fill="#263238"/>
<path d="M77.694 35.1328C77.6788 35.1479 77.8634 35.2489 78.0357 35.5607C78.2055 35.8663 78.3194 36.4027 78.1422 37.0384C78.0588 37.3571 77.9144 37.6966 77.7564 38.0704C77.6008 38.4432 77.425 38.8602 77.3705 39.3407C77.317 39.8076 77.3715 40.3836 77.8006 40.8048C78.0175 40.999 78.2998 41.1363 78.6125 41.1678C78.9188 41.204 79.2826 41.117 79.5079 40.8561L79.3032 40.7442C79.0003 41.5284 79.1446 42.4777 79.6508 43.2445C80.1436 44.0076 81.0317 44.6531 82.091 44.6893L81.9663 44.5125C81.6139 45.419 81.6806 46.4848 82.1097 47.411C82.5024 48.2705 83.197 48.9908 84.0527 49.3749L83.9746 49.2729C84.0625 49.8968 84.1661 50.5155 84.3732 51.098C84.5789 51.6782 84.897 52.2236 85.3742 52.6157C85.8602 52.998 86.4684 53.1719 87.0467 53.1522C87.6235 53.1399 88.1978 52.864 88.4688 52.3999L88.2719 52.3929C88.7427 53.2913 89.5557 53.8678 90.3357 54.124C91.1251 54.3887 91.8761 54.3271 92.4328 54.1752C92.9974 54.0224 93.3876 53.7803 93.6291 53.5993C93.7494 53.5071 93.8368 53.4314 93.8903 53.3755C93.9448 53.3205 93.9708 53.2909 93.9669 53.2866C93.9566 53.2758 93.8393 53.3835 93.5904 53.548C93.3415 53.7093 92.9512 53.9275 92.4009 54.0577C91.8575 54.1875 91.1398 54.227 90.3971 53.9618C89.6617 53.7055 88.9013 53.1446 88.4737 52.2993L88.3819 52.1183L88.2764 52.2922C88.0412 52.6806 87.5572 52.9124 87.0383 52.9213C86.5219 52.9354 85.9657 52.7699 85.5396 52.4281C85.1179 52.0769 84.8185 51.5673 84.6275 51.0162C84.4331 50.4614 84.3335 49.8582 84.2485 49.2386L84.2387 49.1676L84.1705 49.1365C83.3831 48.7806 82.7341 48.1097 82.3659 47.3038C81.9629 46.435 81.902 45.4401 82.2245 44.6037L82.2908 44.4326L82.0999 44.4269C81.1568 44.3997 80.3346 43.8181 79.8726 43.1119C79.3984 42.4034 79.2629 41.534 79.5295 40.8227L79.7563 40.2157L79.3248 40.7103C78.9831 41.102 78.2978 40.9741 77.9537 40.6534C77.5963 40.3168 77.5207 39.7977 77.5669 39.36C77.6715 38.4606 78.1471 37.7399 78.2797 37.0694C78.4446 36.3994 78.3013 35.8366 78.1015 35.5268C77.8963 35.2099 77.694 35.1328 77.694 35.1328Z" fill="#455A64"/>
<path d="M56.4788 28.2271C56.5034 28.2257 56.3865 28.0564 56.5157 27.7857C56.5775 27.6587 56.7199 27.5144 56.9285 27.5074C57.1278 27.4952 57.3895 27.6291 57.4518 27.8651L57.6089 27.8341C57.5254 27.3015 57.8136 26.5588 58.5151 26.1987C59.1901 25.8325 60.3034 26.1061 60.7173 26.9264L60.8964 26.7604C60.732 26.6852 60.6922 26.4229 60.7943 26.2307C60.8842 26.0426 61.137 25.928 61.3952 25.8997C61.9308 25.8499 62.5292 25.9787 63.0643 26.2034C63.969 26.5903 64.669 27.2949 65.0269 28.0621L65.2105 27.8966C65.0279 27.8096 64.939 27.5906 64.9591 27.3795C64.9763 27.1628 65.0809 26.9776 65.2615 26.8521C65.6194 26.5973 66.1054 26.5672 66.53 26.5969C67.3974 26.6551 68.1195 26.9983 68.6276 27.3664C69.659 28.1302 69.8745 28.9134 69.9236 28.8776C69.931 28.8748 69.9187 28.8297 69.8878 28.7446C69.8603 28.6576 69.8038 28.5359 69.7223 28.3808C69.5564 28.0743 69.2496 27.6465 68.7312 27.2394C68.2168 26.8385 67.4706 26.4573 66.5482 26.3778C66.1 26.3426 65.5674 26.3491 65.1098 26.6599C64.8845 26.8079 64.7171 27.0815 64.6994 27.3593C64.669 27.631 64.7795 27.9704 65.0882 28.1246L65.424 28.2919L65.2718 27.9587C64.8934 27.1295 64.1472 26.3736 63.1786 25.9594C62.5955 25.7192 61.9838 25.5796 61.3594 25.6384C61.0535 25.6774 60.7094 25.8057 60.5518 26.1179C60.4802 26.2636 60.4527 26.4248 60.4826 26.5842C60.5077 26.7426 60.6147 26.9048 60.7752 26.9833L61.134 27.1595L60.9544 26.8178C60.4497 25.8579 59.1901 25.5787 58.4105 26.0112C57.6217 26.4399 57.3369 27.2672 57.4503 27.8571L57.6074 27.8261C57.5004 27.5008 57.1705 27.364 56.9197 27.3885C56.6516 27.4134 56.4941 27.6052 56.4376 27.7532C56.3198 28.0752 56.4813 28.2412 56.4788 28.2271Z" fill="#455A64"/>
<path d="M47.8419 42.9945C47.8709 43.5887 47.6779 44.2846 47.1684 44.9146C46.6583 45.5441 45.976 46.0571 45.6117 46.7731C45.247 47.4892 45.3707 48.5409 46.1414 48.8409C45.5185 49.6759 45.3545 50.808 45.7178 51.7738C46.0805 52.7395 46.9597 53.5119 47.9955 53.7752C48.1624 50.4249 48.0839 45.7487 48.1001 42.3945" fill="#263238"/>
<path d="M60.2852 66.2164C62.0917 65.2621 65.0955 64.5166 66.7076 64.0249C67.1028 63.9046 67.5225 63.8561 67.927 63.9417C69.1793 64.2063 69.2451 65.3025 69.0914 66.2051C68.8681 67.5152 68.3134 68.7726 67.4877 69.8392C66.9335 70.5551 66.2025 71.2151 65.2884 71.3838C64.5226 71.5253 63.7372 71.3039 62.9896 71.1065C62.2061 70.8996 61.2331 70.1786 60.8321 69.5017C60.3873 68.7505 59.8296 67.8907 59.756 67.1377C59.7192 66.7588 59.9367 66.4006 60.2852 66.2164Z" fill="#894536"/>
<path d="M65.2867 71.3718C65.2808 71.3493 65.5346 71.3112 65.9308 71.1095C66.326 70.9093 66.8389 70.5121 67.3195 69.8935C67.8011 69.2781 68.2856 68.4734 68.6229 67.5088C68.7917 67.0284 68.9243 66.5043 68.9965 65.9613C69.0583 65.4316 69.0318 64.82 68.6371 64.4233C68.2424 64.0322 67.6033 63.9433 67.0682 64.0472C66.5282 64.1737 65.971 64.3589 65.4595 64.4933C64.4267 64.781 63.5013 65.0485 62.7326 65.2962C61.9638 65.5439 61.3527 65.7728 60.9359 65.9435C60.5176 66.1118 60.2943 66.2227 60.2835 66.2039C60.279 66.1964 60.3306 66.1616 60.4332 66.101C60.5348 66.0389 60.6894 65.9557 60.8937 65.857C61.3011 65.6586 61.9069 65.4029 62.6727 65.1331C63.4385 64.8628 64.3628 64.577 65.3923 64.2771C65.9165 64.1332 66.4251 63.9551 67.0211 63.8117C67.6116 63.698 68.3337 63.7765 68.8227 64.2545C69.0652 64.49 69.185 64.8045 69.2394 65.103C69.2925 65.4057 69.2792 65.7033 69.2458 65.9891C69.1668 66.5574 69.0264 67.0886 68.8462 67.5817C68.4869 68.5688 67.9739 69.3834 67.4629 69.9997C66.9519 70.6207 66.3991 71.0146 65.9759 71.1946C65.7654 71.2872 65.5901 71.3305 65.4723 71.3554C65.3515 71.3751 65.2887 71.3798 65.2867 71.3718Z" fill="#263238"/>
<path d="M36.3386 120.386C36.3141 120.449 33.216 119.414 29.4199 118.075C25.6223 116.735 22.5645 115.597 22.589 115.534C22.6136 115.471 25.7106 116.505 29.5083 117.845C33.3049 119.185 36.3632 120.323 36.3386 120.386Z" fill="white"/>
<path d="M128.467 106.27C128.505 106.328 123.272 109.518 116.781 113.395C110.288 117.274 104.996 120.37 104.958 120.313C104.921 120.256 110.152 117.066 116.646 113.187C123.137 109.31 128.43 106.213 128.467 106.27Z" fill="white"/>
<path d="M100.421 53.8504L106.43 43.26C103.772 38.945 102.235 33.8649 102.235 28.4251C102.235 12.7801 114.918 0.0976562 130.563 0.0976562C146.208 0.0976562 158.89 12.7801 158.89 28.4251C158.89 44.0696 146.208 56.7525 130.563 56.7525C124.03 56.7525 118.019 54.5352 113.226 50.8205L113.236 50.833L100.421 53.8504Z" fill="#E0E0E0"/>
<path d="M100.421 53.8526C100.895 53.7383 105.029 52.7424 113.221 50.7689L113.183 50.8759L113.173 50.8634C113.15 50.8336 113.156 50.7913 113.186 50.7684C113.211 50.7491 113.245 50.7506 113.269 50.7684C114.883 52.0043 116.813 53.221 119.078 54.232C121.345 55.2258 123.94 56.0354 126.8 56.406C128.228 56.5834 129.72 56.6967 131.253 56.6174C132.018 56.5714 132.798 56.5511 133.583 56.4832C134.363 56.3632 135.154 56.2416 135.956 56.1184C139.135 55.4826 142.383 54.2681 145.41 52.3817C148.436 50.5016 151.236 47.953 153.478 44.8249C155.718 41.7026 157.414 38.003 158.206 33.9855C158.991 29.9733 158.922 25.6729 157.867 21.5134C157.729 20.9951 157.608 20.4701 157.456 19.9538C157.271 19.4476 157.085 18.9397 156.898 18.4308C156.57 17.3942 156.034 16.4395 155.574 15.4473C155.358 14.9426 155.041 14.4921 154.763 14.0177C154.475 13.5495 154.197 13.0735 153.9 12.6089C153.569 12.1668 153.238 11.7237 152.905 11.28L152.407 10.6135C152.242 10.3901 152.039 10.1975 151.857 9.98716C151.474 9.56647 151.093 9.14682 150.712 8.72769C150.336 8.30386 149.887 7.9552 149.479 7.56634L148.854 6.99794C148.649 6.80586 148.441 6.61743 148.209 6.45772C147.759 6.12158 147.311 5.78648 146.864 5.45191C146.636 5.29063 146.426 5.10429 146.185 4.96389L145.471 4.53067C144.996 4.24203 144.522 3.95391 144.049 3.66631C143.552 3.42465 143.056 3.18351 142.561 2.94341C142.061 2.71323 141.582 2.43972 141.058 2.27479C136.987 0.656734 132.645 0.0382222 128.492 0.335735C124.338 0.63116 120.363 1.81756 116.949 3.7326C113.525 5.63251 110.634 8.17181 108.401 11.0097C106.16 13.8491 104.577 16.9829 103.593 20.1063C102.615 23.2442 102.344 26.3587 102.345 29.2456C102.418 32.1394 102.935 34.8076 103.693 37.1522C104.451 39.5005 105.453 41.5235 106.487 43.2288C106.5 43.2496 106.499 43.2752 106.488 43.2951C102.59 50.0778 100.654 53.4475 100.421 53.8526C100.649 53.4455 102.549 50.0554 106.374 43.2298L106.375 43.2961C105.326 41.5888 104.311 39.5594 103.539 37.2013C102.768 34.8462 102.239 32.1623 102.156 29.2503C102.146 26.3452 102.412 23.2072 103.389 20.0431C104.374 16.8942 105.962 13.7322 108.217 10.8651C110.464 7.99956 113.376 5.43469 116.828 3.5139C120.269 1.57746 124.28 0.375404 128.472 0.0742372C132.663 -0.229017 137.047 0.392102 141.158 2.02425C141.686 2.19127 142.171 2.46635 142.675 2.69862C143.175 2.94185 143.68 3.17672 144.178 3.4283C144.655 3.71799 145.134 4.00871 145.614 4.29996L146.334 4.73788C146.577 4.87985 146.79 5.06776 147.02 5.23061C147.471 5.56831 147.924 5.90706 148.378 6.24633C148.611 6.40813 148.822 6.59812 149.03 6.79177L149.661 7.36539C150.073 7.7579 150.526 8.11022 150.906 8.5377C151.29 8.96048 151.676 9.3843 152.061 9.80917C152.246 10.0211 152.45 10.2158 152.617 10.4418L153.12 11.1146C153.455 11.5629 153.79 12.0103 154.123 12.4565C154.424 12.9252 154.705 13.406 154.995 13.8788C155.274 14.3575 155.595 14.8131 155.813 15.3226C156.278 16.3242 156.818 17.2882 157.15 18.3348C157.338 18.8484 157.525 19.3614 157.713 19.8724C157.866 20.3939 157.988 20.9242 158.127 21.4472C159.191 25.6473 159.257 29.9873 158.462 34.0366C157.659 38.0912 155.943 41.8231 153.68 44.9705C151.414 48.1236 148.586 50.6906 145.532 52.5806C142.476 54.4779 139.2 55.6956 135.995 56.3287C135.187 56.4509 134.39 56.572 133.604 56.691C132.812 56.7578 132.027 56.7766 131.256 56.8204C129.713 56.8961 128.211 56.7781 126.774 56.5954C123.895 56.2139 121.286 55.3903 119.01 54.3824C116.736 53.3567 114.801 52.1254 113.185 50.8754L113.28 50.7809L113.289 50.7934C113.312 50.8227 113.306 50.8655 113.277 50.8879C113.269 50.8942 113.26 50.8983 113.251 50.9004C105.04 52.7899 100.896 53.743 100.421 53.8526Z" fill="#263238"/>
<path d="M125.95 22.0295L121.93 14.7995H123.715L126.94 20.7845L126.49 20.8145L129.685 14.7995H131.455L127.405 22.0295V25.6445H125.95V22.0295ZM134.38 25.7945C133.67 25.7945 133.06 25.6545 132.55 25.3745C132.04 25.0845 131.645 24.6945 131.365 24.2045C131.095 23.7045 130.96 23.1345 130.96 22.4945C130.96 21.8845 131.115 21.3295 131.425 20.8295C131.735 20.3295 132.15 19.9295 132.67 19.6295C133.19 19.3295 133.77 19.1795 134.41 19.1795C135.23 19.1795 135.91 19.4195 136.45 19.8995C136.99 20.3795 137.355 21.0395 137.545 21.8795L132.43 23.6795L132.1 22.8545L136.3 21.3245L136 21.5195C135.88 21.1895 135.68 20.9045 135.4 20.6645C135.12 20.4145 134.755 20.2895 134.305 20.2895C133.925 20.2895 133.585 20.3845 133.285 20.5745C132.985 20.7545 132.75 21.0045 132.58 21.3245C132.41 21.6445 132.325 22.0095 132.325 22.4195C132.325 22.8495 132.415 23.2295 132.595 23.5595C132.775 23.8795 133.02 24.1345 133.33 24.3245C133.65 24.5045 134.01 24.5945 134.41 24.5945C134.68 24.5945 134.94 24.5445 135.19 24.4445C135.45 24.3445 135.69 24.2145 135.91 24.0545L136.555 25.0895C136.245 25.2995 135.895 25.4695 135.505 25.5995C135.125 25.7295 134.75 25.7945 134.38 25.7945ZM141.033 25.7645C140.593 25.7645 140.163 25.6895 139.743 25.5395C139.333 25.3795 138.993 25.1445 138.723 24.8345L139.308 24.0245C139.568 24.2745 139.833 24.4645 140.103 24.5945C140.383 24.7145 140.658 24.7745 140.928 24.7745C141.128 24.7745 141.313 24.7495 141.483 24.6995C141.653 24.6495 141.788 24.5695 141.888 24.4595C141.998 24.3395 142.053 24.1795 142.053 23.9795C142.053 23.7595 141.978 23.5845 141.828 23.4545C141.688 23.3245 141.503 23.2195 141.273 23.1395C141.053 23.0595 140.818 22.9845 140.568 22.9145C140.058 22.7445 139.668 22.5095 139.398 22.2095C139.128 21.9095 138.993 21.5445 138.993 21.1145C138.993 20.7845 139.073 20.4795 139.233 20.1995C139.403 19.9095 139.648 19.6745 139.968 19.4945C140.298 19.3145 140.703 19.2245 141.183 19.2245C141.613 19.2245 141.998 19.2795 142.338 19.3895C142.678 19.4895 142.998 19.6595 143.298 19.8995L142.743 20.7695C142.563 20.5795 142.348 20.4395 142.098 20.3495C141.848 20.2595 141.623 20.2095 141.423 20.1995C141.253 20.1895 141.088 20.2145 140.928 20.2745C140.778 20.3345 140.653 20.4195 140.553 20.5295C140.453 20.6395 140.403 20.7695 140.403 20.9195C140.403 21.1295 140.473 21.2995 140.613 21.4295C140.753 21.5595 140.933 21.6645 141.153 21.7445C141.383 21.8145 141.608 21.8895 141.828 21.9695C142.138 22.0595 142.413 22.1795 142.653 22.3295C142.893 22.4795 143.083 22.6645 143.223 22.8845C143.373 23.1045 143.448 23.3795 143.448 23.7095C143.448 24.0795 143.358 24.4245 143.178 24.7445C143.008 25.0545 142.743 25.3045 142.383 25.4945C142.033 25.6745 141.583 25.7645 141.033 25.7645Z" fill="#FF5310"/>
</svg>
